<svg id="Layer_1" data-name="Layer 1" xmlns="http://www.w3.org/2000/svg" viewBox="0 0 81.51 51.39"><title>bison</title><path d="M61.19,10.81s0,0,0,.06l0,0Z" transform="translate(0 0.01)"/><path d="M55.33,22.41v0h0Z" transform="translate(0 0.01)"/><path d="M64.31,11.77v0h0Z" transform="translate(0 0.01)"/><path d="M60.3,11.92v0h0Z" transform="translate(0 0.01)"/><path d="M47.1,30.1h0v0Z" transform="translate(0 0.01)"/><path d="M31.9,15.33l0,0s0,0,0,.08Z" transform="translate(0 0.01)"/><path d="M55.15,33.13h0v0Z" transform="translate(0 0.01)"/><path d="M49.43,38.38v0h0Z" transform="translate(0 0.01)"/><path d="M35.71,36s0,0,0,0h0Z" transform="translate(0 0.01)"/><path d="M52.06,28.33l0,0v0Z" transform="translate(0 0.01)"/><path d="M63.82,36l0,0s0,0,0,.06Z" transform="translate(0 0.01)"/><path d="M64.93,35.65h0v0Z" transform="translate(0 0.01)"/><path d="M53.75,32.17a.31.31,0,0,0,0,0h0Z" transform="translate(0 0.01)"/><path d="M58.31,21.4l0,0v-.05l0,0S58.3,21.38,58.31,21.4Z" transform="translate(0 0.01)"/><path d="M59,18v0h0v0Z" transform="translate(0 0.01)"/><path d="M38.14,33.09h0l0,0Z" transform="translate(0 0.01)"/><path d="M60.93,15.14l0,0,0,0Z" transform="translate(0 0.01)"/><path d="M22.11,48.91h0v0h0Z" transform="translate(0 0.01)"/><path d="M22.11,48.91c-.87,1.2-.69,1.95.58,2.4a1.05,1.05,0,0,0,1.39-.61A1.58,1.58,0,0,0,23.31,49c-.37-.15-.27.28-.25.54C22.62,49.53,22.61,48.85,22.11,48.91Zm1,.72c.23.27.65.42.6.87,0,0-.27.11-.28.09C23.22,50.3,22.93,50,23.08,49.63Z" transform="translate(0 0.01)"/><path d="M46.92,29.62l.17.45c.21-.3.61-.49.69-.1.12.6.63.49.92.72l0,.07.07,0,0,0,.53-.09c-.2-.13-.38-.27-.22-.55.69-1.23.59-1.46-.79-1.71-.06.43.52.45.52.5,0,.77-.52,0-.77.2s-.32.31-.48,0Zm1.61,0s.07-.11.11-.12a.49.49,0,0,1,.18.06s-.07.12-.11.12A.51.51,0,0,1,48.54,29.66Z" transform="translate(0 0.01)"/><path d="M46.92,29.62h0Z" transform="translate(0 0.01)"/><path d="M47.1,30.1l0,0h0Z" transform="translate(0 0.01)"/><path d="M49.25,30.61h0Z" transform="translate(0 0.01)"/><path d="M48.27,5.6h0l0,0Z" transform="translate(0 0.01)"/><path d="M48.27,5.6s-.05,0-.08,0c-.7.15-.17-1-.61-.72a15.47,15.47,0,0,0-2.15,1.74.17.17,0,0,0,0,.29c.19.1.47.12.53-.06.24-.7.52-.52.9-.12s.6-.07.7-.26S47.82,5.71,48.27,5.6Zm-1.06.74-.08.09s-.08,0-.08-.08,0-.06.07-.08Zm.25-.66a1.18,1.18,0,0,1-.07.21l-.13-.14.12-.16S47.47,5.66,47.46,5.69Z" transform="translate(0 0.01)"/><path d="M2.53,27.93A7.73,7.73,0,0,0,2.27,30c0,.19,0,.32.2.34s.13-.15.17-.24c.15-.36.25-1.34.34-1.68A5.44,5.44,0,0,1,4.1,25.7,10.79,10.79,0,0,0,5,24.19,12.28,12.28,0,0,1,12.63,21a9.42,9.42,0,0,0,5.32-2.48,15.53,15.53,0,0,1,2.5-1.22c.27-.16.46.06.57.27a.38.38,0,0,1-.28.55,5.6,5.6,0,0,0-1.85,1,4.69,4.69,0,0,0-1.32,5c1,2.3,2.27,4.59,2.74,7.05A7.83,7.83,0,0,1,20.17,35c-.32,1-1.69,2.2-.68,3.21,1.54,1.56,1.4,3.56,1.57,5.44.1,1.11.48,2.4-.62,3.34a.42.42,0,0,0,0,.33c.76.32.76,1.48,1.71,1.58,0-.38-.25-.88.13-1s.52.33.59.69c0,.06.19.09.29.13,0-.14.1-.28.13-.43.16-.68-.33-1.24-.55-1.74-.71-1.59-.16-3.15-.08-4.67a15,15,0,0,1,.59-4.29,14.36,14.36,0,0,1,1.17-2.27c.09-.16.29-.31.49-.1s0,.29-.09.41a4,4,0,0,0-1.08,2.17.73.73,0,0,0,.58,1c-.22.32.94-.21.29.5-1,1.08-.77,2.47-.41,3.69.3,1,.22,2.07.44,3,.29,1.19.32,2.37.53,3.55a1.69,1.69,0,0,0,.61.84.9.9,0,0,0,.74.22c.26-.13.13-.48.1-.75.27-.18.27.5.58.21s.14-.38,0-.62a8.31,8.31,0,0,1-.6-2.73c-.17-1-.79-1.92-1-2.94a1.58,1.58,0,0,1,.15-1.61,4.09,4.09,0,0,0,.66-2.6,4.22,4.22,0,0,1,1.24-2.82,6.71,6.71,0,0,0,1.24-2c.14-.36.74-.72.22-1.11a1.36,1.36,0,0,0-1.55,0c-.57.31-.92,1.06-1.78.87-.17,0-.43.13-.6-.1s.09-.42.24-.55a4.17,4.17,0,0,0,1.42-2.37c.16-.82.84-1.07,1.66-1a9.05,9.05,0,0,1,5.33,2.7,10.86,10.86,0,0,1,1.37,2.29.85.85,0,0,0,.6.48c.06-1-.83-1.54-1.1-2.37,0-.13-.22-.33-.19-.36s.27,0,.41.06a29.42,29.42,0,0,1,2.74,1.3,9.33,9.33,0,0,0,6.71,1.15c.95-.16,1.5-.06,1.66,1,0,.12.16.22.25.33a2.68,2.68,0,0,0,.26-.38c.08-.17-.35-.42.06-.52.06,0,.21.29.31.46a6.52,6.52,0,0,1,.4.72c.11.26.21.61.51.56s.25-.41.15-.65.09-.37.24-.44,1.69,1.29,1.62,1.57c0,0-.17.06-.28.08.19.93,1,1.43,1.58,2,.37.37,1,.11,1-.64A36.32,36.32,0,0,0,51.56,34c0-.32-.18-.26-.38-.19-.45.14-.22.32-.12.6a5,5,0,0,1,0,3.63c-.05.14,0,.34-.27.31s-.2-.21-.23-.36c-.18-.88-.36-1.75-.54-2.64.35-.25.78-.45,0-.83s-.53-.7.11-.94c.2-.08.53.11.6-.21s-.31-.32-.48-.42c-.71-.38-.5-.59.11-.69.28,0,.16-.22.17-.33a.21.21,0,0,0-.31-.22c-1.33,1-1.59-1-2.58-1-.2,0-.4-.42-.59-.67-2.6-1.26-4.92-3-7.38-4.48a13.67,13.67,0,0,0-6.53-1.84c-1.59-.08-3.13-.73-4.77-.36-.33.08-.82-.29-.88-.93a2.17,2.17,0,0,0-2.06-1.95,1.08,1.08,0,0,1-1.17-.74c-.71-1.49-1.42-2.91-3.36-3-.17,0-.34-.08-.29-.27s.16-.34.27-.36c2.49-.41,4.49-2.17,7-2.5.61-.08,1.2.51,1.82,0,0,0,.19.16.17.22a.33.33,0,0,1-.23.2c-.35.06-.71.1-1.06.14-.06.29-.26.58.14.82a.87.87,0,0,1-.05,1.47c-.07,0-.26,0-.16.16s.14.06.21.07.41.31.6,0,.1-.7.44-.93.29-1,.62,0c.06.17.69-.31,1-.6s.46-.38.52.06c.27-.77,1.08-.82,1.65-1.1a5.52,5.52,0,0,0,3.08-3.08c.15-.4.53-1.54,1.27-1.19s.46,1.37.29,2.09a12.43,12.43,0,0,1-.83,2c-.65,1.44,2.05-.2,2.44-.68,1.5-1.86,1.89-4.36,3.66-6.06,2.12-2,4.14-4.28,7.34-4.71a2.8,2.8,0,0,1,2,.55c.19.12.48.28.31.55s-.56-.17-.83,0c-.14-.2.06-.61-.41-.6s0,.42-.2.58a3.24,3.24,0,0,1-2.21,0c-.24-.13-.38.05-.5.19s-.66.41-.51.72.33-.26.5-.2a16,16,0,0,1,3.07,1.19,6.62,6.62,0,0,0,2.11.63c1.53.36,1.86,1,1.93,2.21A4.46,4.46,0,0,0,56.6,11c.09.12.35.35-.11.48-1.81.51-2.68,2.08-3.38,3.55a15.58,15.58,0,0,0-1,5.5c0,.24,0,.56.25.6s.22-.34.26-.5c.29-1.13.49-2.28.79-3.4.57-2.1,1.18-4.17,3.32-5.34a4,4,0,0,0,1.84-3.38c.08-.64-.49-.86-.71-1.3-.83-1.65-2.47-1.47-3.9-1.72a2.87,2.87,0,0,1-2.1-1c-.29-.06-.84.09-.83-.14,0-.44.51-.35.86-.36s.39,0,.47.26l0,0v0h0l.21.21,0,0h.06l0,0c.31-.55,1-.36,1.28-.31a8.49,8.49,0,0,1,3.11,1c.14.09.18.31.43,0,.5-.52,1-.18,1.27.27s1,.59,1.39,1a.36.36,0,0,0,.22.09c.49,0,.56,0,.69.66a1.15,1.15,0,0,0,1.14.85c2.36.35,3.2,2.32,4.39,3.92.11.15.39.41.15.61a.77.77,0,0,1-.67.07c-.56-.25-1.08-.57-1.62-.87l-.1.48c-.46-.37-.85-1.42-1.49-.12-.07.14-.25,0-.35-.16a4.2,4.2,0,0,0-1.17-1.14c-.13,1,.82,1.36,1.29,1.93.73.88,0,.6-.35.66l-.08.15-.15-.15v0h0l0,0c-.32-.34-.78-.55-.76-1.16s-.55-.25-.85-.34c-.27.6-.26,1.34-.91,1.75-.06,0,0,.2-.05.3l.29-.06c.82-.2,1.21.33,1.56.92.19.08.31.22.14.4s-.31.06-.39-.12c-.47.28-.38-.66-.71-.39-.56.46.08.71.29,1a.33.33,0,0,1,0,.28c-.05.08-.18.1-.28.14-.21-.72-1.35-.66-1.31-1.58l0,0,0-.07-.07,0a4.36,4.36,0,0,0-.46-.57c-.15-.14-.52-.06-.39.09.74.94-.26,2,.19,2.88l.74.09V18l.41.13c-.27.35-.49.95-.8,1-.95.15-1,.08-.55.88a1.83,1.83,0,0,1,.22.9l0,0v.05l0,0c.33.31.82,0,1.16.24-.39.66-.68.73-1.16.28,0,.38-.28.5-.54.58-1.09.32-1.1.31-1.39,1a1.12,1.12,0,0,0-1-.58c.34.32-.4,1.21.69,1.24.3,0,0,.76,0,1.11s-.43,0-.57-.14c-.39-.47-.31,0-.26.14s.15.41-.08.59-.27.25-.13.39.25-.08.34-.16c.75-.74.81-.14.89.44-.19.65-.52,1.37.63,1.44l.31,0c0-.1,0-.24-.12-.28-1.24-.75.45-1.26.18-2,0-.06.39,0,.45.18a1.12,1.12,0,0,0,.9.77c-.07.2-.06.5-.43.38-.12,0-.29-.24-.3.08a5.14,5.14,0,0,1-.43,1.11c-1-.08-.59.62-.53,1s.17.55-.19.64-.63.22-.82-.2a4,4,0,0,0-.32-.63c-.16-.23-.2-.69-.64-.52a.87.87,0,0,0-.52.44c-.12.45.37.16.54.35a.84.84,0,0,1,.19.88c-.11.3-.16.72-.67.7a5.59,5.59,0,0,0-.79.06c.08.33-.44.75.1,1s.81.25,1.06-.26c.49-.22,1-.59,1.06.43a.48.48,0,0,0,.83.32c.26-.76,1.14-.78,1.49-1.38,0-.07,0-.55.29-.14.07.11.31.25,0,.45-1,.63-1.23,2.17-2.72,2.19-.09,0-.17.17-.27.22s.09.69-.36.53-.1-.5,0-.77c-.7.07-.78-.82-1.37-.92-.07.38.52.85.09,1s-.55-.51-.66-1c-.34-1.33-1.57-2.4-1.16-3.95-.34-.14-.46-.37-.22-.69.94-1.27.46-2.55,0-3.79-.57-1.54-1.36-3-.79-4.75,0-.08,0-.28-.1-.29s-.23.09-.29.25A4.73,4.73,0,0,0,51,23.61c.34.56.1,1.48.1,2.24a.33.33,0,0,1-.18.24c-.2.06-.23-.11-.29-.26-.23-.61-.48-1.22-.74-1.83,0-.09-.14-.2-.22-.21s-.07.14-.09.23c-.14.67.61,1.58-.52,2l.87.8,0,0,.07,0,0-.07c.25-.22.55-.56.81-.15a1,1,0,0,1-.1,1.39c-1.11.89-.64,1.82-.07,2.67,1.45,2.15,2,4.65,2.71,7.06,0,.15,0,.37.07.46,1.18,1.22.72,2.87,1.09,4.29a3.48,3.48,0,0,1-.58,2.84A12.75,12.75,0,0,0,53,46.82c-.08.15-.24.52,0,.48,1.55-.29.3,1.39,1.13,1.56-.14.23,0,.37.16.5.51.48,1.35.86,1.76.51s0-1.34-.4-1.69c-1.19-1.17-.33-1.39.61-1.7a1.26,1.26,0,0,0,.57-.38c.19-.24.34-.7.66-.38s.14.72,0,1.12-.4.19-.65,0a.64.64,0,0,0-.78,0c-.24.25,0,.51.11.75a1.52,1.52,0,0,1,.2.43c.15.57.41,1.52.75,1.45.6-.12.13-.94.26-1.45,0-.11,0-.34.05-.34.23,0,.16.2.23.32a1,1,0,0,0,1,.55c.4-.11.17-.61.19-.94.06-.68.29-1.4-.56-1.85a1.32,1.32,0,0,1-.41-.9c.58-1.45-.18-2.88,0-4.3a2.75,2.75,0,0,0,.1-.78c-.05-.3-.17-.7-.56-.66s-.15.45-.24.69.29.78-.23,1c-.18-.43-.82-.67-.51-1.3,0-.1,0-.29,0-.35,1.29-1.3.84-2.78.56-4.3-.19-1,.5-1.46,1.48-1.11.11,0,.28.13.19.18-1.07.56-.11.81.13,1.23s.4,1.19.7,1.72a.66.66,0,0,1,.07.73c-.7,1.21,0,2.82-1.13,3.93-.21.21-.13.69,0,1a11.49,11.49,0,0,1,.89,5.08c0,.25,0,.57.29.56s.12-.37.17-.56A4.77,4.77,0,0,0,59.54,45a4.42,4.42,0,0,1,0-3.78c.58-1-.08-2.16.4-3.2a4.47,4.47,0,0,1,.6-1.16c.46-.55,1.31-1,1.16-2-.07-.43.56-.7.8-.72.72-.07-.12.43.14.62.08.06.13.2.23.08.67-.82.51-.33.34.21a1.17,1.17,0,0,0,0,.32l.45-.32.56-.44c.23.36-.19.45-.27.68a2.36,2.36,0,0,0-.06.64c.47-.21.48-.73.74-1.08.13-.18.46-.47.5-.43.29.2.11.44,0,.68a2,2,0,0,0-.13.53c.52,0,.28-.83.83-.76,0,.43-.52,1-.2,1.13s.46-.65.72-1a2.83,2.83,0,0,0,.25-.5c.26.15.13.4.13.6,0,.85.33,1.62.26,2.55s.83-.29,1.31,0c.33-1,2.38-1,1.6-2.63,0,0,.15-.2.21-.19.29,0,.2.28.23.45s-.07.33.14.41a2.84,2.84,0,0,0,.08-.42c0-.28,0-.56,0-.84s-.25-.93.25-1a1.55,1.55,0,0,1,1.67.29c1.07,1.18,2.15,2.33,3.24,3.49.14.15.13.56.45.41.13-.06.12-.4.17-.63.85-.33.75-1.26.83-1.83.19-1.3.25-2.54,1.63-3.19.53-.25,0-.31-.1-.4-.5-.66-.45-1.27.26-1.65,1-.55,1-2,2.27-2.39.14,0,0-.26,0-.41-.2-1.8-1.32-3.21-2-4.82,0-.1-.18-.16-.25-.25-.34-.44-.44,1-.73.12-.1-.3.12-.71-.23-1-.51-.44.42-.89,0-1.35.46-.28.55.34.89.36s.51.64.76.38-.16-.58-.38-.84a5.24,5.24,0,0,1-.52-.78.37.37,0,0,1,0-.32.2.2,0,0,1,.37,0c.08.14.11.31.31.14s0-.32,0-.38c.19-.45-1.7-.26-.34-1.09.13-.08-.44-.31-.66-.5s-.91-.38,0-.53a.12.12,0,0,0,0-.24c-.84-.15-1.18-1.45-2.33-1a.71.71,0,0,1-.93-.49c.18.07.39.15.51,0a.37.37,0,0,0-.28-.54c-1.09-.06-1.13-1.29-1.95-1.72-.31-.16-.5-.73-1.09-.77-.26,0-.65-.32-.25-.66s.16-.39-.18-.52-1.58.07-.32-.75c.11-.07-.12-.35-.36-.4C70.66,9,69.4,9.5,70.19,8c0,0-.21-.24-.34-.28A5.93,5.93,0,0,0,69,7.59a2.49,2.49,0,0,0,.48-.39s-.12-.34-.22-.36c-.9-.18-1.47-1.13-2.47-1-.13,0-.3.22-.32-.08,0-.06.13-.18.22-.2.26-.06.65-.08.51-.41a.72.72,0,0,0-.84-.29c-.29.12-.63.4-.83.06s.37-.3.47-.54.14-.22.12-.3S66,4,65.87,4c-.34.2-.65-.24-1,0a.35.35,0,0,1-.52-.12c-.1-.27.14-.31.34-.34s.34-.11.26-.29a.44.44,0,0,0-.39-.15c-1.7.42-2.92-.49-4-1.54C59.78.9,58.83,1.13,58,.93A23.62,23.62,0,0,0,53.37,0c-5.7-.31-11.49,2.73-15.08,7-.84,1-1.58,2.11-2.5,3.05-3.66,3.79-9.37,1.45-13.44,4.31-1.26.89-2.75,1.49-4,2.38a20.09,20.09,0,0,1-4.37,2.51c-2.34.84-4.73.91-6.88,2.27-1,.63-2.48,1-3,2.32-.38.92-1.75,1.8-2.64,2.74L0,28.1c.81.07,2.65-1.91,3.46-2.67a.94.94,0,0,0,.23-.12c-.42.91-.69,1.57-1.11,2.48ZM53.29,35.4s0-.06.07-.08l.09.08-.08.09S53.3,35.42,53.29,35.4Zm.19-1c0,.21-.08.45-.28.45-.36,0-.12-.34-.24-.54.17-.07-.12-.41.23-.36S53.49,34.22,53.49,34.43ZM53.7,36c0,.06-.05.12-.09.18s-.09-.11-.1-.17.05-.12.09-.18S53.7,35.93,53.7,36Zm.23-1.08s0,.08-.08.08-.06,0-.08-.07l.07-.08Zm.49-1s-.09.06-.15.1l-.21-.26.25-.12A2,2,0,0,1,54.42,33.89Zm0,3.43-.1.27-.27-.21c0-.06.06-.16.08-.16A2.19,2.19,0,0,1,54.42,37.32Zm.94-2.9a.11.11,0,0,1-.07.08s-.06,0-.09-.07l.08-.09S55.36,34.4,55.36,34.43Zm.94,8.86c.21-.33.14-1,.61-1s0,.71.29,1.1c0,.69-.47,1.25-.63,1.91,0,0-.15,0-.15,0C56.38,44.66,55.84,44,56.31,43.29Zm-1.42-12.4-.05.34-.11-.35Zm.93-1,0,.13-.13-.05Zm.63.22c0,.05-.06.14-.1.15s-.37,0-.43-.18Zm.12.77-.07.08s-.08,0-.08-.08,0-.06.07-.08Zm.24.72s0,.08-.08.08-.06,0-.08-.07l.08-.09Zm.73-3c0,.06-.05.12-.09.18s-.09-.11-.1-.17.05-.12.09-.18S57.54,28.49,57.54,28.55ZM56.22,23.1l.13,0-.05.13Zm4.2-9.87c0,.1,0,.22-.16.08Zm.21-.13-.17.07C60.47,13.08,60.46,12.95,60.63,13.1Zm.74.45s0,.08-.08.08-.06,0-.08-.07l.08-.08Zm6.35-3.06s.08.08.07.09c-.14.25.17.77-.2.77s-.12-.51-.21-.81c.16-.35-.22-1.13.25-1.09C68.33,9.52,67.48,10.14,67.72,10.49Zm-.32,1.77c.06,0,.12.05.17.08l-.17.11-.18-.1C67.3,12.32,67.35,12.26,67.41,12.26Zm.72,1.08a.88.88,0,0,1-.39.64c-.1-.32-.22-.64-.3-1,0-.17.07-.28.27-.28A.58.58,0,0,1,68.13,13.34ZM68,14.46c0,.1.12.23.09.3a3.06,3.06,0,0,1-.33.48l-.1-.26C67.65,14.67,67.84,14.58,68,14.46Zm.34-2.83s0,.08-.08.08-.06,0-.08-.07l.08-.08Zm.73,3c.05.83-1,1.28-.75,2.16.1.37-.06.61-.34.57a.45.45,0,0,1-.28-.67C68.14,16,68.19,15.08,69.05,14.67Zm.21-.13-.16.06C69.11,14.52,69.1,14.39,69.26,14.54Zm1.3,2.4a12,12,0,0,1-.73,2.77c-.07.17,0,.41-.32.42a2.5,2.5,0,0,1-1.14-1.44c-.09-.27-.76-.56-.19-.83s.28.42.45.63.14.68.56.67.48-.46.58-.77c.17-.52.24-1.06.39-1.58a.44.44,0,0,1,.37-.22C70.82,16.65,70.58,16.82,70.56,16.94Zm.84,1-.13,0,.05-.13Zm.8,2.32a1.44,1.44,0,0,1-.17.54c-.41.2-.67.87-1.3.42a.94.94,0,0,1-.43-1.14c.31-.67.18-1.55.91-2a3.52,3.52,0,0,1-.33,1.89c-.11.32-.33.75.13.87.22.06.56-.24.58-.7a1.62,1.62,0,0,1,.46-1.1C72.38,19.38,72.17,19.83,72.2,20.25Zm.16,1.37c-.2.1-.26-.26-.34-.42s0-.24,0-.37l.22.22C72.45,21.22,72.57,21.52,72.36,21.62ZM74,21.49c-.24.26-.5-.2-.8-.16.21-.39-.07-.61-.31-.84s-.36-.77-.1-.94c.43-.28.54.24.68.53a3.53,3.53,0,0,1,.22.66C73.77,21,74.34,21.15,74,21.49Zm-.86-.11c0,.09,0,.22-.17.07Zm1.47-1.06c0,.4.44.54.61.85a.48.48,0,0,1,0,.31s-.13.06-.25.11c-.21-.34-.44-.69-.65-1.06A1.75,1.75,0,0,1,74,19.26C74.59,19.4,74.59,19.86,74.63,20.32Zm.12-1.21c0-.05-.1-.1-.11-.16s.07-.09.11-.14a1.24,1.24,0,0,1,.07.22S74.77,19.08,74.75,19.11Zm.42-4.57a.74.74,0,0,1-.64,0,.17.17,0,0,1,0-.09C74.78,14.31,75,14.42,75.17,14.54Zm.12,5s0,.08-.07.08-.06,0-.08-.07l.07-.08Zm.49.66s-.09.06-.15.1l-.21-.26.25-.12A1.94,1.94,0,0,1,75.78,20.21Zm.35,3.66c.07.47,0,.89-.46.8-.68-.14-1.67-.06-1.61-1.23-.1,0-.21-.08-.25-.16-.4-.76.46-.9.68-.88A1.62,1.62,0,0,1,76.12,23.88Zm.21-1.77c.25.17,0,.27-.06.41-.23,0-.27-.18-.13-.37A.2.2,0,0,1,76.34,22.11Zm.11.52-.09.08,0-.13Zm.31-2c-.23,0-.21-.25-.3-.4s-.16-.29.1-.28.19.3.3.43S76.91,20.56,76.76,20.62ZM77,23.06l-.05.13-.08-.09Zm.82,1.71c-.14-.63,0-1.39-.76-1.73.36-.41.83-.36,1,0A1.32,1.32,0,0,1,77.81,24.77Zm-1.51,4c.06-.08.13-.27.25-.31a4.82,4.82,0,0,0,2.37-1.64c.22-.3.57-.21.83.06s0,.46-.16.68c-.78,1.08-2,1.87-2.11,3.37a.32.32,0,0,1-.19.23c-.2.05-.21-.17-.3-.27-.4-.42,0-.8,0-1.2s.52-1-.42-.78C76.46,28.91,76.35,29,76.3,28.74Zm-.1,8,.07.17C76.17,36.93,76,36.94,76.19,36.77ZM73,28.44s0-.06.07-.08l.08.08-.08.08S73,28.46,73,28.44ZM71.05,30.6s0-.06.07-.08l.08.08-.08.08S71.06,30.62,71.05,30.6Zm0-7.1-.18-.1c.06,0,.11-.1.17-.1s.12.05.18.09ZM70.8,25c0-.06.05-.12.09-.18s.1.12.1.17-.05.12-.09.18S70.8,25,70.8,25Zm-.71,4.68s0-.08.08-.08a.1.1,0,0,1,.08.07s0,.06-.07.08Zm0-5,.08-.09s.08,0,.08.08a.11.11,0,0,1-.07.08S70.12,24.62,70.09,24.6Zm0-.91c.13-.09.21-.16.24-.15a.41.41,0,0,1,.22.18c0,.06,0,.25-.16.16A2.43,2.43,0,0,1,70,23.69Zm-.29.18c.09,0,.15.16.22.24l-.2.14c-.06-.07-.16-.13-.18-.21S69.57,23.77,69.75,23.87Zm-.4-.83c0-.06.05-.12.09-.18s.1.12.1.17-.05.12-.09.18S69.36,23.09,69.36,23Zm.1-.76s-.08,0-.08-.08,0-.06.07-.08l.08.08Zm-1,13.34a1.25,1.25,0,0,1,.22-.07s.06,0,.09.08-.1.1-.16.11S68.51,35.65,68.46,35.61Zm0-12.45s0-.06.07-.08l.08.07-.07.08S68.42,23.18,68.41,23.16Zm-1,11.93c.43.09.18.6.43.83-.36.29,0,.79-.34,1.05-.11-.48-.23-1-.31-1.46C67.15,35.34,67.14,35,67.4,35.09Zm.37-7.8c0-.06-.1-.11-.1-.17s.05-.12.09-.18.1.12.1.17S67.81,27.22,67.77,27.28Zm-.37,7.24s-.09-.07-.14-.11a1.23,1.23,0,0,1,.22-.07s.06,0,.09.08S67.46,34.52,67.4,34.52ZM67,26.78s.07-.11.11-.12a.49.49,0,0,1,.18.06s-.07.12-.11.12A.51.51,0,0,1,67,26.78ZM66.91,19c0-.21-.29-.47.07-.59s.34.2.45.4A9.44,9.44,0,0,0,71,22.12c.57.35,1.33,1,2.09.15.1-.11.25-.26.39-.12s-.1.25-.14.38a1.49,1.49,0,0,0,.6,2c.59.44,1.52.08,1.77.74.5,1.31.65,0,.68-.1.22-1.2.62-1.51,1.41-.39h0a1,1,0,0,0-.26.6c0,.49.27,1-.13,1.47a1.73,1.73,0,0,1-2.74-.33c-.26-.6-.76-1.49-1.13-1.43-1.14.18-.67-1.15-1.38-1.22.3-.75-.3-.93-.76-1-1.3-.18-2.13-1.18-3.08-1.85A2.8,2.8,0,0,1,66.91,19Zm-.18,6.13L66.8,25l.09.08s0,.08-.08.08S66.76,25.1,66.73,25.08Zm-.2-7.15,0-.13.13,0Zm-.6.61c.19-.06.4-.13.48.16,0,0-.06.1-.09.16Zm.42-1,.07.17C66.33,17.73,66.2,17.74,66.35,17.57ZM65.77,34.2c.1,0,.25,0,.29.12.17.28-.13.36-.25.51C65.8,34.62,65.78,34.41,65.77,34.2Zm-1-13.69c.36.12.62.28.13.64-.15.11-.34.32-.5.1C64.06,20.84,64.88,20.88,64.75,20.51Zm0-.09c-.24-.19-.18-.45-.16-.7C64.92,19.88,64.76,20.16,64.7,20.41Zm-.33-.81.09-.08,0,.13Zm-.28-2.2s0-.06.07-.08l.09.08-.08.09S64.1,17.42,64.09,17.4Zm-.59,3.1c.16-.09.4-.25.44-.21.24.23-.09.37-.14.56C63.56,20.85,63.59,20.62,63.5,20.49Zm0,3.13s0,.08-.08.08-.06,0-.08-.07l.08-.08Zm.37-2.57-.06-.17C63.93,20.9,64.06,20.89,63.9,21.05Zm-.55,11.53c.22-.08.33-.16.42-.15s.22.1.23.17a.28.28,0,0,1-.17.22C63.76,32.85,63.66,32.75,63.35,32.58Zm-.17-6s.07-.11.11-.12a.49.49,0,0,1,.18.06s-.07.12-.11.12A.51.51,0,0,1,63.18,26.54Zm0-6.41c0-.07.17-.19.22-.17.32.1.2.32.14.52C63.35,20.38,63.09,20.39,63.13,20.13Zm.32-1.22s-.08,0-.08-.08,0-.06.07-.08l.09.08Zm-.56,3.52s0-.06.07-.08l.09.08-.08.09S62.9,22.46,62.89,22.44Zm-2.14,12,0-.13.13.05Zm-.23-.23.08-.09,0,.13Zm-1.74-7.59.1-.18c0,.06.1.11.1.17s-.05.12-.09.18ZM58,23.58s0,.06-.08.09-.1-.1-.11-.16.07-.09.11-.14A1.24,1.24,0,0,1,58,23.58Zm-.1,1.19c-.12,0-.25.22-.33-.08a2,2,0,0,1,.31-.56c.15-.14.26.08.32.18C58.4,24.61,58.14,24.69,57.92,24.77Zm.9.32a2.44,2.44,0,0,1-.3-.2c.13-.09.21-.16.24-.15a.41.41,0,0,1,.22.18C59,25,59,25.17,58.82,25.08Zm-.22,1.11-.26-.34c-.13-.17-.44-.37-.17-.57s.35.27.56.39C59.24,25.95,59,26.11,58.6,26.19ZM59,30.38a13.67,13.67,0,0,1,1.21-1.72c.18-.21.62-.28.67.25a5.15,5.15,0,0,1-1.65,1.77C59,30.69,59,30.5,59,30.38ZM59.53,27l.08-.09s.08,0,.08.08a.11.11,0,0,1-.07.08S59.56,27,59.53,27Zm.08,1.11s.08,0,.08.08a.11.11,0,0,1-.07.08s-.06,0-.09-.07Zm-.38-3.85-.05.13-.08-.09ZM59.32,23c.33-.39,0-.92.4-1.17.17-.1.33.15.45.31.58.78.46,1.87.94,2.59.71,1.09.07,2.13.3,3.16a.25.25,0,0,1-.22.34c-.23,0-.19-.19-.26-.32a3.81,3.81,0,0,1-.37-2.28c.27-1.33-.46-1.33-1.26-1.46,0-.31.28-.41.54-.51s.31-.25.29-.32a.44.44,0,0,0-.44-.33C59.54,23.06,59.13,23.25,59.32,23Zm-.59-6.85a.1.1,0,0,1-.07.08s-.06,0-.08-.07l.08-.09S58.72,16.16,58.72,16.19Zm.25-.72s0,.08-.08.08-.06,0-.08-.07l.08-.08Zm.23,1.37-.13.2A.18.18,0,0,1,59.2,16.83Zm.24-.15-.17.07C59.28,16.65,59.27,16.53,59.44,16.68Zm0-.49-.08.09s-.08,0-.08-.08,0-.06.07-.08Zm.24,1.2-.08.08s-.08,0-.08-.08,0-.06.07-.08Zm.24,1.68-.08.09s-.08,0-.08-.08,0-.06.07-.08Zm.45-1.83c.06.15.18.31-.08.4-.06,0-.17-.12-.25-.19Zm0,1.25c.06,0,.13.05.2.08l-.22.16-.23-.11A.93.93,0,0,1,60.36,18.49Zm.54-1.43c-.1.29-.29.22-.48.15l.4-.31C60.85,17,60.91,17,60.9,17.06Zm.18,2.06-.13,0L61,19Zm.28-1.74a.11.11,0,0,1-.07.08s-.06,0-.09-.07l.08-.09S61.36,17.36,61.36,17.39ZM61.45,16l.08-.09s.08,0,.08.08a.11.11,0,0,1-.07.08S61.48,16,61.45,16Zm.08.88s.08,0,.08.08a.1.1,0,0,1-.07.08s-.06,0-.08-.07Zm.08-2.32-.08.09s-.08,0-.08-.08,0-.06.07-.08Zm.32,4.6-.36,0V19Zm0,.35c0,.09,0,.22-.17.07Zm.42-.11-.37.06.05-.28Zm-.15-.71a1.09,1.09,0,0,1,.15-.37s.15,0,.24.07a1.61,1.61,0,0,1-.23.43C62.13,18.93,62.14,18.68,62.15,18.64Zm.39-3.17c-.06,0-.11.09-.17.1s-.12-.05-.18-.09.12-.1.17-.1S62.48,15.44,62.54,15.47Zm0,.48s0,.08-.08.08-.06,0-.08-.07l.08-.09Zm.33,5.15a1,1,0,0,1,0,.9c-.08.14-.84.12-.71-.14.28-.6,0-.47-.36-.51s-.4.3-.54.51c.37.07,0,.66.46.66.12,0,.28-.25.33,0,0,.11-.11.3-.23.38-.4.29-.56-.12-.76-.31-.53-.5-.81-1.27-1.6-1.48a.45.45,0,0,1,.37-.42c.29-.35.73-.61.67-1.16,0-.13-.34-.15-.16-.29s.36,0,.55,0h0c.41.25.39,1.25,1.34.67C62.48,19.74,62.55,20.71,62.9,21.1Zm1.2-5.74c-.19-1.36.29-.18.45-.14s.37-.14.46-.33h.22c-.19.72-.86,1.52.34,2a1.58,1.58,0,0,1,.33,1.63c-.86-.16-.86-.17-.72-.9,0-.09,0-.27-.09-.28-1-.1-.72-1.81-2-1.53-.23,0-.3-.31-.19-.44s.24.28.36.18C63.53,15.31,64.15,15.72,64.1,15.35ZM64,12.59l-.08.08s-.08,0-.08-.08,0-.06.07-.08Zm.6-.32v.16l-.35-.12ZM64.82,14l-.16.16c-.35.35-.74.39-1-.05a.72.72,0,0,1,.39-1c.5-.18.41.37.52.66C64.62,13.87,64.73,13.93,64.82,14Zm.38-.45c0,.16-.23.29-.35.42a2.58,2.58,0,0,1-.07-.53,4.63,4.63,0,0,1,.12-.66c.11,0,.3,0,.3.08A1.68,1.68,0,0,1,65.2,13.54Zm0,1.1h0l-.21.21-.44-.1a1.42,1.42,0,0,1,.23-.27C65,14.34,65.17,14.38,65.23,14.64Zm.18.15-.15.06v-.18Zm0,1.13,0,.13L65.33,16Zm.26-.45s0,.06-.07.09l-.09-.08s0-.08.08-.08A.11.11,0,0,1,65.68,15.47Zm.92-1.71a15,15,0,0,1,.09,1.9c0,.92,0,.91-.77.93-.12,0-.24.15-.36.25l-.06-.74c1.75.07-.08-1.36.68-1.73,0,0,.35-.28,0-.44-.15-.07-.61.07-.26-.35.12-.15.29-.34.45-.35C66.8,13.21,66.59,13.61,66.61,13.76Zm.08-3.67a.92.92,0,0,1,.18-.23s.13,0,.2,0l-.22.32Zm-1-1.63c.1-.48,0-1.34.15-1.3.68.14.33.84.35,1.3S66.36,9.75,66,9.7C65.4,9.63,65.89,8.86,65.7,8.46Zm-.94-.81c.11-.35-.17-.79.15-1.15a3.19,3.19,0,0,1,.32,1.1c0,.48.36,1-.05,1.44a.31.31,0,0,1-.31,0C64.46,8.61,64.83,8.13,64.76,7.65Zm-.89-1c-.21,0-.3-.11-.29-.28s-.17-.65.19-.83c.16-.08.28.1.27.27S64.18,6.45,63.87,6.67ZM63,7.46c0-.21.32-.52.74-.5s.27.46.29.73,0,.56-.35.4S63.05,7.7,63,7.46ZM59.53,5.64l.08-.09s.08,0,.08.08a.11.11,0,0,1-.07.08S59.56,5.66,59.53,5.64Zm-.68-2.33a6.79,6.79,0,0,0,1.46.3c.86.16,2,.11,2.27,1.22a10.14,10.14,0,0,1,0,2.26c0,.35-.07.53-.46.34-.58-.27-1.24-.53-.35-1.18.42-.31.35-.4.06-.79s-.43-.85-1.1-1.08a4.83,4.83,0,0,0-1.71-.59C58.73,3.81,58.77,3.54,58.84,3.31Zm-1.49,0c.46-.55.94-.64,1.44,0Zm.25,1.35.07-.08s.08,0,.08.08a.1.1,0,0,1-.07.08S57.64,4.7,57.61,4.68ZM53.94,2.83c-.22,0-.26-.27,0-.41a3.82,3.82,0,0,1,3.36.9h0c0,.1-.12.29-.13.29A26.26,26.26,0,0,0,53.94,2.83Zm-.36.45c.08-.07.13-.16.17-.15a1.6,1.6,0,0,1,.32.07s-.09.12-.14.13A1.89,1.89,0,0,1,53.58,3.29Zm-.48-.51s.07-.12.11-.12a.52.52,0,0,1,.19.06s-.07.12-.11.12A.49.49,0,0,1,53.11,2.78ZM34.6,12.6c.06,0,.11-.1.17-.1s.12.05.18.09l-.17.11Zm-.64.29-.13,0,.05-.13Zm-.32.15.13,0,0,.13Zm-1.15.34c0-.32.36-.13.54-.25s.29.07.29.24-.16.32-.39.3S32.49,13.54,32.49,13.37Zm-2,.53c0-.1.06-.22.19-.11a1.3,1.3,0,0,1,.18.26l-.24.09C30.57,14.07,30.48,14,30.48,13.91ZM51.13,40s0-.06.07-.08l.09.08-.08.09S51.14,40,51.13,40Zm-1.21-5h.17l-.05.35Zm-2.16.92.08-.09s.08,0,.08.08a.11.11,0,0,1-.07.08S47.8,35.9,47.77,35.88Zm-.26-.6.1-.18c0,.06.1.11.1.17s-.05.12-.09.18Zm-1.71,0c0-.14,0-.4.23-.43s.25.23.26.41,0,.43-.22.45S45.84,35.47,45.8,35.27Zm-17-7.45a.52.52,0,0,1,.43-.44C29.29,27.73,29.12,27.86,28.8,27.82Zm0-3.56-.05.13-.08-.09Zm.19-.11-.13,0,0-.13Zm.46,3.13-.13,0,.05-.13ZM29.88,26s-.07.11-.11.12a.49.49,0,0,1-.18-.06s.07-.12.11-.12A.51.51,0,0,1,29.88,26Zm.29-1.66s0,.08-.08.08-.06,0-.08-.07l.08-.08Zm.67.27a1.25,1.25,0,0,1-.22.07s-.06,0-.09-.08.1-.1.16-.11S30.79,24.57,30.84,24.61Zm.53.21-.08.09s-.08,0-.08-.08,0-.06.07-.08Zm1.41.11a1.09,1.09,0,0,1-.37-.15s0-.15.07-.24a1.61,1.61,0,0,1,.43.23C33.07,25,32.81,24.94,32.77,24.94Zm4.59,7c0,.07-.14.17-.22.17s-.2-.07-.41-.15c.29-.16.39-.26.46-.24A.28.28,0,0,1,37.36,31.94ZM39.13,27l.08-.09s.08,0,.08.08a.1.1,0,0,1-.07.08S39.16,27,39.13,27Zm-1.45,5.64a.86.86,0,0,1,.48.46c.36.08.79.09.88.55,0,.19-.18,0-.26,0a1,1,0,0,1-1.21-.37C37.46,33.2,37.61,32.88,37.67,32.64Zm-2.41-.46a.53.53,0,0,1,.44.44Q35.2,32.68,35.26,32.18Zm-8.2-2.82c0-.37.23-1,.79-1,.41,0,.56-.43.91-.48.17.31.4.68.73.66,1.5-.12,2.41,1.32,3.91,1.33.79,0,1.54.67,2.29,1.1s1,1.53,2,1.68c-.62.54-1.24.78-1.89,0,.35-.16.49-.35.11-.7s-.48,0-.62.19c-.57-.46-1.14-.91-1.94-.55-.18.08-.26-.08-.37-.13-1.61-.75-3.07-1.9-5-1.93C27.66,29.5,27,29.66,27.06,29.36ZM26,49c0-.07.18-.11.28-.16.07.31.41.55.24.91C26.36,49.47,26,49.38,26,49Zm-.56-.56c.09-.23.21-.38.41-.38a.3.3,0,0,1,.22.18c.05.23-.14.36-.3.43S25.57,48.48,25.46,48.4Zm-1.18-9.72a2.57,2.57,0,0,1,.22-1.78c.07.06.18.1.21.18C25.05,37.74,24.69,38.22,24.28,38.68Zm-1.69-11.6c-.09,0-.25,0-.19-.14a3.09,3.09,0,0,1,.24-.46,1,1,0,0,1,.12.25C22.78,26.87,22.78,27,22.59,27.08Zm.61.48c-.08,0-.14-.13-.2-.2l.15-.17c.08.07.2.13.23.23S23.28,27.59,23.2,27.56ZM23,29.07c.66.32-.13-.89.52-.55.19.1.43.28.38.54a.61.61,0,0,1-.35.41C23.29,29.54,23.12,29.34,23,29.07Zm-.25-.25A.18.18,0,0,1,23,29,.19.19,0,0,1,22.79,28.82Zm.15,1.07q0,.17-.08.33l0-.33Zm-.5.54v-.17l.34.05Zm.15-1.72.09-.08,0,.13ZM22.29,28c0-.16,0-.33.22-.34a.45.45,0,0,1,.45.33c.1.3-.06.26-.3.22S22.27,28.3,22.29,28ZM22,27.23s0,.08-.08.08-.06,0-.08-.07,0-.08.08-.08S22,27.2,22,27.23Zm-.08,1.36s.08,0,.08.08a.11.11,0,0,1-.07.08s-.06,0-.09-.07Zm-.1.69.1-.18c0,.06.1.11.1.17s-.05.12-.09.18Zm-.49-2.93c-.43,0-.18-.31-.09-.53s-.41-.51.11-.58a.29.29,0,0,1,.3.45C21.52,25.91,21.74,26.36,21.33,26.35Zm.19.88s0,.08-.08.08-.06,0-.08-.07l.08-.09ZM21.42,29l-.07-.17C21.45,28.82,21.58,28.81,21.42,29ZM20.83,34c.05-.73,0-1.47,0-2.21,0-.13.11-.38.16-.38.23,0,.11.22.13.35a9.11,9.11,0,0,1-.95,5.45c-.06.13,0,.33-.21.37s-.25-.24-.37-.37a1,1,0,0,1-.15-.78A2.86,2.86,0,0,0,20.83,34Zm-.46-3.66c0-.06,0-.25.14-.32a.2.2,0,0,1,.31.18.55.55,0,0,1-.12.41C20.57,30.75,20.43,30.65,20.37,30.38Zm0-11.16a1.56,1.56,0,0,1-.21.36A5.33,5.33,0,0,0,19,25.79c.44,1.07,1.08,2.06,1.42,3.18.06.19.22.39,0,.5s-.28-.17-.38-.33c-.24-.36-.33-.77-.56-1.15a9.75,9.75,0,0,1-1.26-6.56A2.2,2.2,0,0,1,20.32,19.22Zm-.56,2.89.09.08s0,.08-.08.08-.06,0-.08-.07Zm.42-.33c-.27.06-.28-.18-.3-.37s0-.43.19-.49.29.18.29.37S20.42,21.73,20.18,21.78Zm.36-2.68-.17.06C20.39,19.08,20.38,18.95,20.55,19.1Zm0,8c-.71-.59-.59-1.52-.89-2.28a3.53,3.53,0,0,1,0-1.29,2.08,2.08,0,0,1,.45,1.11A5.81,5.81,0,0,1,20.59,27.07Zm.21.49c-.23-.06-.19-.26-.18-.43.17,0,.37-.05.43.18A.2.2,0,0,1,20.8,27.56Zm.29.55c.39.11.21.41.22.64-.29-.07-.47-.23-.41-.55C20.91,28.16,21,28.09,21.09,28.11Zm-.92-11.43.07-.08.08.07s0,.08-.08.08S20.2,16.7,20.17,16.68Z" transform="translate(0 0.01)"/><path d="M50,17.27c-.27-.82-.53-1.64-.77-2.47,0-.08.1-.1.17,0a9.54,9.54,0,0,1,1.18,2.77,1.12,1.12,0,0,1,0,.2c-.16.13.2.61-.2.61s0-.4-.12-.59A2.81,2.81,0,0,1,50,17.27Z" transform="translate(0 0.01)"/><path d="M79.53,30.74q1,.27,2,.58a.61.61,0,0,1-.05.32c-.28.47-.61.09-.91,0a1.71,1.71,0,0,1-1.22-.76C79.28,30.68,79.47,30.72,79.53,30.74Z" transform="translate(0 0.01)"/><path d="M58.29,17.05l0,0h0v0Z" transform="translate(0 0.01)"/><path d="M59,18c-.13.38-.41.58-.79.41s-.36-.73-.55-1.08.37-.23.64-.28C58.47,17.41,58.47,17.9,59,18Z" transform="translate(0 0.01)"/><path d="M27.18,15.34a3.49,3.49,0,0,1-.46-.06c0-.15.13-.43.14-.43.72.2,1-.87,1.76-.57C28.08,14.54,27.93,15.35,27.18,15.34Z" transform="translate(0 0.01)"/><path d="M29.09,17.34c0,.13,0,.3-.1.38-.37.37-1,.44-1.27.9l-.37-.25a1.23,1.23,0,0,1,.06-.25c.63,0,.94-.47,1.35-.82C28.82,17.26,29,17.33,29.09,17.34Z" transform="translate(0 0.01)"/><path d="M53.1,29.76a1.83,1.83,0,0,1,1.15-.15c.42.54-.5.35-.5.74a.32.32,0,0,1-.08.16C53.25,30.42,52.84,30.15,53.1,29.76Z" transform="translate(0 0.01)"/><path d="M53.67,30.51h0a.27.27,0,0,1,0,0h0Z" transform="translate(0 0.01)"/><path d="M49.83,28.09c.06.06-.08.23-.22.18a1.24,1.24,0,0,1-.66-.63c.06-.07,0-.3.2-.14A5.47,5.47,0,0,1,49.83,28.09Z" transform="translate(0 0.01)"/><path d="M55.1,21.66c.14-.12.61-.11.66,0,.16.31-.49.19-.38.57,0,.05,0,.13-.06.19C55.25,22.14,54.72,22,55.1,21.66Z" transform="translate(0 0.01)"/><path d="M55.33,22.41l0,0v0Z" transform="translate(0 0.01)"/><path d="M55.55,17.81c0-.07.24-.19.25-.17a6.34,6.34,0,0,1,.52.64,2.21,2.21,0,0,1-.22.2C55.86,18.26,55.52,18.18,55.55,17.81Z" transform="translate(0 0.01)"/><path d="M65.33,39.17c.07,0,.13.19.13.3s0,.35-.24.31-.2-.21-.19-.37S65.17,39.12,65.33,39.17Z" transform="translate(0 0.01)"/><path d="M80.65,28.78c0-.17.17-.21.32-.2s.28.06.3.13,0,.3-.24.3S80.71,29,80.65,28.78Z" transform="translate(0 0.01)"/><path d="M48,29h0l0,0h0Z" transform="translate(0 0.01)"/><path d="M47.5,29c0-.32-.12-.73.45-.68V29Z" transform="translate(0 0.01)"/><path d="M48,28.33v0l0,0Z" transform="translate(0 0.01)"/><path d="M47.48,29l0,0h0l0,0h0s0,0,0,0Z" transform="translate(0 0.01)"/><path d="M64.59,39.73c.18-.09.15.1.16.18s0,.33-.19.35-.17-.09-.32-.18C64.38,39.93,64.46,39.79,64.59,39.73Z" transform="translate(0 0.01)"/><path d="M52.5,28c.1,0,.28-.08.22.11-.11.37-.43.18-.67.2C52,27.94,52.23,27.95,52.5,28Z" transform="translate(0 0.01)"/><path d="M52.06,28.33l0,0h0S52.05,28.32,52.06,28.33Z" transform="translate(0 0.01)"/><path d="M66.27,38.37c.28-.09.15.18.15.27s.1.32-.21.36c-.05-.07-.2-.17-.18-.25S66.16,38.41,66.27,38.37Z" transform="translate(0 0.01)"/><path d="M27.67,17.76c-.12-.07-.27-.11-.29-.18s.07-.29.25-.28a1.71,1.71,0,0,1,.33.08Z" transform="translate(0 0.01)"/><path d="M56.75,16.92a.59.59,0,0,1-.32-.24c-.12-.29.09-.29.29-.26h0C56.73,16.59,56.93,16.76,56.75,16.92Z" transform="translate(0 0.01)"/><path d="M57,18.31c0-.1.14-.17.21-.25l.3.3-.27.1C57.09,18.44,56.93,18.48,57,18.31Z" transform="translate(0 0.01)"/><path d="M64.67,36.21c-.13-.27.15-.34.26-.5q0,.31,0,.61C64.85,36.28,64.71,36.27,64.67,36.21Z" transform="translate(0 0.01)"/><path d="M64.93,35.66l0,0,0,0Z" transform="translate(0 0.01)"/><path d="M62.78,11.38s-.13.09-.19.09a3.26,3.26,0,0,1-.51-.16l.61-.23A1.3,1.3,0,0,1,62.78,11.38Z" transform="translate(0 0.01)"/><path d="M46.55,28.81l0,0h0Z" transform="translate(0 0.01)"/><path d="M46.92,29.59l-.35-.75C47.24,28.81,47,29.26,46.92,29.59Z" transform="translate(0 0.01)"/><path d="M46.93,29.61l0,0v0Z" transform="translate(0 0.01)"/><path d="M54.89,27.59c0,.11-.11.13-.15,0a.38.38,0,0,1,0-.22c0-.05.07-.09.14-.17A1.46,1.46,0,0,1,54.89,27.59Z" transform="translate(0 0.01)"/><path d="M55.52,27.08c-.08.07-.17.12-.26.18L55.19,27a1.06,1.06,0,0,1,.29-.09C55.59,26.92,55.61,27,55.52,27.08Z" transform="translate(0 0.01)"/><path d="M55.19,20.27l.07-.26.26.17c.1.07.08.15,0,.16A1.05,1.05,0,0,1,55.19,20.27Z" transform="translate(0 0.01)"/><path d="M55.71,26c.16-.22.34,0,.52,0l-.49.21C55.73,26.18,55.68,26.08,55.71,26Z" transform="translate(0 0.01)"/><path d="M49,23.29a1.06,1.06,0,0,1,.09.29c0,.12-.08.14-.16,0s-.12-.17-.18-.26Z" transform="translate(0 0.01)"/><path d="M62,12.91l.1.51h-.2Z" transform="translate(0 0.01)"/><path d="M62.11,13.42h0l0,0h0Z" transform="translate(0 0.01)"/><path d="M60.3,11.92l0,0,0,0Z" transform="translate(0 0.01)"/><path d="M59.79,11.84c0-.05,0-.14,0-.21l.44.31C60.08,12,59.91,12,59.79,11.84Z" transform="translate(0 0.01)"/><path d="M56.72,15.89c.22.16,0,.34,0,.52l-.21-.49C56.58,15.91,56.68,15.87,56.72,15.89Z" transform="translate(0 0.01)"/><path d="M49.43,38.38l0,0v0Z" transform="translate(0 0.01)"/><path d="M49.31,38l.07.38L49,38.29Z" transform="translate(0 0.01)"/><path d="M27.93,16.73a2.44,2.44,0,0,1-.25.24l-.1-.25a2.25,2.25,0,0,1,.27-.13S27.94,16.71,27.93,16.73Z" transform="translate(0 0.01)"/><path d="M58.27,20.9q0,.21,0,.42C58,21.18,58,21,58.27,20.9Z" transform="translate(0 0.01)"/><path d="M48.37,5.2c0,.11,0,.23-.07.34l0-.37Z" transform="translate(0 0.01)"/><path d="M48.28,5.6v0Z" transform="translate(0 0.01)"/><path d="M51.84,4.53s0,0,0,0h0l0,0Z" transform="translate(0 0.01)"/><path d="M52.27,4.33v.21h-.43C51.9,4.3,52.09,4.33,52.27,4.33Z" transform="translate(0 0.01)"/><path d="M48.4,6.63a1,1,0,0,1,0,.19l-.13-.08.08-.18S48.4,6.61,48.4,6.63Z" transform="translate(0 0.01)"/><path d="M53.54,29.35a.12.12,0,0,1,0-.1.66.66,0,0,1,.12-.11.54.54,0,0,1,0,.2C53.65,29.45,53.59,29.45,53.54,29.35Z" transform="translate(0 0.01)"/><path d="M63.89,10.74a.13.13,0,0,1-.1,0,.66.66,0,0,1-.11-.12.54.54,0,0,1,.2,0C64,10.63,64,10.69,63.89,10.74Z" transform="translate(0 0.01)"/><path d="M56.32,28.86c0,.11-.09.11-.14,0a.12.12,0,0,1,0-.1.65.65,0,0,1,.12-.11A.54.54,0,0,1,56.32,28.86Z" transform="translate(0 0.01)"/><path d="M57.42,15.7s.11.08.1.12-.06.1-.09.15a1.22,1.22,0,0,1-.07-.19S57.4,15.73,57.42,15.7Z" transform="translate(0 0.01)"/><path d="M26.4,15.81a.66.66,0,0,1,.12-.11.54.54,0,0,1,0,.2c0,.11-.09.11-.14,0A.13.13,0,0,1,26.4,15.81Z" transform="translate(0 0.01)"/><path d="M29.62,17.13s.07.06.07.08a1.07,1.07,0,0,1-.06.19l-.13-.1Z" transform="translate(0 0.01)"/><path d="M48.94,26.83c-.05,0-.1-.06-.15-.09a1.21,1.21,0,0,1,.19-.07s.05,0,.08.06S49,26.83,48.94,26.83Z" transform="translate(0 0.01)"/><path d="M49.25,30.62l0,0v0Z" transform="translate(0 0.01)"/><path d="M49.22,31l0-.37.07.35Z" transform="translate(0 0.01)"/><path d="M63.52,40.86c0,.11-.09.11-.15,0a.13.13,0,0,1,0-.1.66.66,0,0,1,.12-.11A.54.54,0,0,1,63.52,40.86Z" transform="translate(0 0.01)"/><path d="M46.43,28.69l0,.08h0S46.44,28.71,46.43,28.69Z" transform="translate(0 0.01)"/><path d="M46.55,28.81l0,0,0-.07Z" transform="translate(0 0.01)"/><path d="M65.3,36.6s0-.05.06-.08l.08.07-.07.08S65.3,36.62,65.3,36.6Z" transform="translate(0 0.01)"/><path d="M27.86,15.8s0,0,0,0l0,0Z" transform="translate(0 0.01)"/><path d="M28,15.63a.14.14,0,0,1-.13.17A.15.15,0,0,1,28,15.63Z" transform="translate(0 0.01)"/><path d="M28,15.61l0,0s0,0,0,0Z" transform="translate(0 0.01)"/><path d="M35.82,36.1l0-.08h0S35.82,36.07,35.82,36.1Z" transform="translate(0 0.01)"/><path d="M35.71,36l0,0,0,.07Z" transform="translate(0 0.01)"/><path d="M28,15.61l0,0,.07,0Z" transform="translate(0 0.01)"/><path d="M28.15,15.5l-.08,0v0S28.13,15.5,28.15,15.5Z" transform="translate(0 0.01)"/><path d="M31.78,15.45l.08,0v0S31.81,15.44,31.78,15.45Z" transform="translate(0 0.01)"/><path d="M31.9,15.33l0,0-.07,0Z" transform="translate(0 0.01)"/><path d="M59.11,14.54l-.08,0v0S59.09,14.54,59.11,14.54Z" transform="translate(0 0.01)"/><path d="M63.82,36l0,0-.07,0Z" transform="translate(0 0.01)"/><path d="M63.71,36.09l.08,0v0S63.73,36.08,63.71,36.09Z" transform="translate(0 0.01)"/><path d="M61.14,14.9s0,0,0-.05h0v0Z" transform="translate(0 0.01)"/><path d="M60.91,15.1l.05,0s0,0,0,.06Z" transform="translate(0 0.01)"/><path d="M61,15.08a.22.22,0,0,1,.18-.18A.21.21,0,0,1,61,15.08Z" transform="translate(0 0.01)"/><path d="M48.58,30.81l.08,0v0S48.61,30.8,48.58,30.81Z" transform="translate(0 0.01)"/><path d="M50.56,3.47l-.07.08s-.07,0-.07-.07,0-.05.06-.08Z" transform="translate(0 0.01)"/><path d="M52.37,4.71l-.06-.14h.17Z" transform="translate(0 0.01)"/><path d="M52.32,4.57h0v0h0Z" transform="translate(0 0.01)"/><path d="M53.75,32.17l0,0,0-.07Z" transform="translate(0 0.01)"/><path d="M53.64,32.05l0,.08h0S53.64,32.07,53.64,32.05Z" transform="translate(0 0.01)"/><path d="M55.27,33l-.08,0v0S55.25,33,55.27,33Z" transform="translate(0 0.01)"/><path d="M55.16,33.13l0,0,.07,0Z" transform="translate(0 0.01)"/><path d="M58.72,6.35s0,.07-.07.07-.05,0-.08-.06l.07-.08Z" transform="translate(0 0.01)"/><path d="M59.44,6.59a.09.09,0,0,1-.06.07s-.05,0-.08-.06l.07-.08S59.43,6.56,59.44,6.59Z" transform="translate(0 0.01)"/><path d="M62.18,9l.07-.08s.07,0,.07.07a.09.09,0,0,1-.06.07S62.2,9,62.18,9Z" transform="translate(0 0.01)"/><path d="M51,9.23s0,.05-.06.08l-.08-.07s0-.07.07-.07A.09.09,0,0,1,51,9.23Z" transform="translate(0 0.01)"/><path d="M63.27,9.95s0,0-.06.07L63.14,10s0-.07.06-.07A.09.09,0,0,1,63.27,9.95Z" transform="translate(0 0.01)"/><path d="M61.07,10.69l0,.08h0S61.08,10.71,61.07,10.69Z" transform="translate(0 0.01)"/><path d="M61.19,10.81l0,0,0-.07Z" transform="translate(0 0.01)"/><path d="M64.19,11.65l0,.08h0S64.2,11.67,64.19,11.65Z" transform="translate(0 0.01)"/><path d="M64.31,11.77l0,0,0-.07Z" transform="translate(0 0.01)"/><path d="M48,28.29h0l0,0Z" transform="translate(0 0.01)"/><path d="M48.05,28.16l.11.14H48Z" transform="translate(0 0.01)"/><path d="M48.17,28.29h.06a.39.39,0,0,0,0,0h0Z" transform="translate(0 0.01)"/><path d="M54.57,19.48l.08.14C54.57,19.63,54.46,19.65,54.57,19.48Z" transform="translate(0 0.01)"/><path d="M54.65,19.63h0l0,0Z" transform="translate(0 0.01)"/><path d="M54.78,19.78l0-.08h0S54.78,19.75,54.78,19.78Z" transform="translate(0 0.01)"/><path d="M54.67,19.66l0,0,0,.07Z" transform="translate(0 0.01)"/><path d="M57.28,26.75s0,.07-.07.07-.05,0-.08-.06l.07-.08Z" transform="translate(0 0.01)"/><path d="M56.08,20.75a.09.09,0,0,1-.06.07s-.05,0-.08-.06l.07-.08S56.07,20.72,56.08,20.75Z" transform="translate(0 0.01)"/><path d="M27.7,15.93l.08,0v0S27.73,15.92,27.7,15.93Z" transform="translate(0 0.01)"/><path d="M27.82,15.81l0,0-.07,0Z" transform="translate(0 0.01)"/><path d="M56.08,28.19a.09.09,0,0,1-.06.07s-.05,0-.08-.06l.07-.08S56.07,28.16,56.08,28.19Z" transform="translate(0 0.01)"/><path d="M26.66,16.44s0,0,.06-.08l.08.06-.06.08S26.67,16.46,26.66,16.44Z" transform="translate(0 0.01)"/><path d="M23.54,16.44s0,0,.06-.08l.08.06-.06.08S23.55,16.46,23.54,16.44Z" transform="translate(0 0.01)"/><path d="M49.59,30.35a.09.09,0,0,1-.06.07s-.05,0-.08-.06l.06-.08S49.59,30.32,49.59,30.35Z" transform="translate(0 0.01)"/><path d="M50,27l0-.08h0S50,27,50,27Z" transform="translate(0 0.01)"/><path d="M54.56,17.32s.07,0,.07.07a.09.09,0,0,1-.06.07s-.05,0-.08-.06Z" transform="translate(0 0.01)"/><path d="M72.64,23.39s0,.07-.07.07-.05,0-.08-.06l.07-.08Z" transform="translate(0 0.01)"/><path d="M61.62,20.83a3.79,3.79,0,0,1-.42-.3c0-.15,0-.33.14-.25a1.29,1.29,0,0,1,.42.39C61.9,20.86,61.65,20.85,61.62,20.83Z" transform="translate(0 0.01)"/><path d="M59.94,20.72h-.08l0,0h.06Z" transform="translate(0 0.01)"/><path d="M60.28,20.79l-.34-.07.37,0Z" transform="translate(0 0.01)"/><path d="M60.71,21.62l.12-.16s.07.06.07.08a1.07,1.07,0,0,1-.06.19Z" transform="translate(0 0.01)"/><path d="M62.09,4.8s0,.09,0,.09l-.14,0L62,4.65A.9.9,0,0,1,62.09,4.8Z" transform="translate(0 0.01)"/><path d="M74.66,22.84c.27.09.66.36.5.63-.31.55-.71.18-1.07,0C74.16,23.13,74.09,22.65,74.66,22.84Z" transform="translate(0 0.01)"/><path d="M74.09,23.45h0l0,0s0,0,0,0Z" transform="translate(0 0.01)"/><path d="M38,33.21l.08,0v0S38,33.2,38,33.21Z" transform="translate(0 0.01)"/><path d="M38.14,33.09l0,0-.07,0Z" transform="translate(0 0.01)"/></svg>