<svg id="d3400090-7102-4495-82ea-707bf4e49b03" data-name="Layer 1" xmlns="http://www.w3.org/2000/svg" viewBox="0 0 79.76 56.04"><title>bison</title><path d="M50.09,55H49.7L49,55.2l-2.94.12L45.4,55l-.55-.57-.43-.38-1,0-.86-.31a4.89,4.89,0,0,1-.87-.78c-.31-.5,0-1-.25-1.58-.09-.23-.27-.41-.37-.63a2.3,2.3,0,0,1-.13-.75,15.26,15.26,0,0,0-1.58-4.58c-1-2.39-.77-4.38-.39-6.88l.43-1.24a5.7,5.7,0,0,0,.13-1.4,1.79,1.79,0,0,0-2.23.41c-.59.58-1,1.35-1.55,1.93a5.9,5.9,0,0,1-4.18,1.3c-4.42,0-7.67-1.86-10.91-4.67-.57-.49-1.12-1.06-1.72-1.51-.21-.16-1.31-.64-1.32-.86L17.74,35a10.3,10.3,0,0,1-2.32,6.61,2.37,2.37,0,0,0-.72,1.71l.41,1.34,1.19,2.08,1.56,2.06,1.27,1.51,1.19.93.89.93.84.74.43.55-.22.43-.79.1h-3l-.57-.31-.5-.41c-.1-.08-.13-.53-.17-.67-.48,0-1.52.17-1.84-.22s-.06-.71,0-1.09a2.58,2.58,0,0,0-.77-1.67,41.06,41.06,0,0,1-3-4.34c-.72-1.2-1.29-3.13-2.45-3.95a4.68,4.68,0,0,0-2.68,2.74A11.91,11.91,0,0,0,7,50.62a12.06,12.06,0,0,0,1.6,2.48,12.27,12.27,0,0,1,.87,1.3A8.16,8.16,0,0,0,10,55.7a.61.61,0,0,0-.83.31,10.19,10.19,0,0,1-1.37,0l-1.41-.14c-1.6-.16-1.25-1.53-1.65-2.61l-.53,0c-1,0-.65-3.78-.7-4.51L2.91,40a64.59,64.59,0,0,0-.69-7.77,10.57,10.57,0,0,0-.61-1.9c-.71,1-.22,9.5-1.55,9.31A104.09,104.09,0,0,1,.44,28.93c.13-2.42.39-4.79.39-7.23A11.35,11.35,0,0,1,5.2,12.19c3.66-2.8,8.63-3.48,13-4.55q7.64-1.86,15.2-4A83.85,83.85,0,0,1,47,.46c3.44-.38,7.48-1.1,10.64.73A11.66,11.66,0,0,1,61.3,5.06c.43.64.61,1.3,1.45,1.27s1.69-1,2.49-1.34a5.81,5.81,0,0,1,3-.46c3.53.44,5.36,3.86,7,6.57a26.46,26.46,0,0,1,2.8,6,21.32,21.32,0,0,1,.76,3.29,8.44,8.44,0,0,0,.47,2.92,2.61,2.61,0,0,1,.37,1.82A3.94,3.94,0,0,1,79,26.38a2.6,2.6,0,0,1-.58.64,2.79,2.79,0,0,1-.55.28,18.24,18.24,0,0,1-3,1l-.46.46c-.35.35-.38,1.15-.76,1.58-1,1.12-2.26,1.08-3.59.88l-.47-1.42c-.34-1-2.59-1.18-3.41-1.1-2.68.26-4.94,2-7,3.7a19.79,19.79,0,0,0-3,3.08L55.08,36.7l-1.42,1.51H51.3l-1.23,1c-1.2,1-2.21,3.17-3,4.53A9.26,9.26,0,0,0,46,46.61a8.32,8.32,0,0,0,.22,3.31,5.89,5.89,0,0,0,.62,2l3.21,2.84Z"/></svg>