<svg id="73f195a7-aec8-4be9-9552-b4d17bf4f089" data-name="Layer 1" xmlns="http://www.w3.org/2000/svg" viewBox="0 0 11.14 9.43"><title>cart</title><path d="M11.14,1.29V4.71A.41.41,0,0,1,11,5a.42.42,0,0,1-.27.14L3.77,6a4.15,4.15,0,0,1,.09.47,1.29,1.29,0,0,1-.16.43H9.86a.43.43,0,0,1,0,.86H3a.43.43,0,0,1-.43-.43.63.63,0,0,1,.05-.21,2.59,2.59,0,0,1,.11-.24l.14-.27.1-.2L1.79.86H.43A.41.41,0,0,1,.13.73.41.41,0,0,1,0,.43.41.41,0,0,1,.13.13.41.41,0,0,1,.43,0H2.14a.42.42,0,0,1,.19,0,.39.39,0,0,1,.13.1.68.68,0,0,1,.09.16A1.06,1.06,0,0,1,2.6.49l0,.2,0,.17h8a.43.43,0,0,1,.43.43ZM4,8a.86.86,0,0,1-.6,1.46A.86.86,0,1,1,4,8Zm6,0a.84.84,0,1,1-.6-.25A.82.82,0,0,1,10,8Z"/></svg>