<svg id="9fd0e03b-8608-4ba3-8c74-80159477d4aa" data-name="Layer 1" xmlns="http://www.w3.org/2000/svg" viewBox="0 0 348.58 21.6"><title>logo</title><path d="M16.05,20.14v.71H0v-.71H1a11.52,11.52,0,0,0,1.7-.1,1.83,1.83,0,0,0,1.61-1.37,9.11,9.11,0,0,0,.16-1.91V4.65a9.2,9.2,0,0,0-.16-1.93A1.81,1.81,0,0,0,2.67,1.37,11.52,11.52,0,0,0,1,1.27H0V.56H16.05v.71h-1a4.74,4.74,0,0,0-2.73.53,2.17,2.17,0,0,0-.68,1.5,11.83,11.83,0,0,0-.05,1.34V16.76a8.91,8.91,0,0,0,.16,1.91A1.83,1.83,0,0,0,13.38,20a11.51,11.51,0,0,0,1.7.1ZM9.38,2.23a2.72,2.72,0,0,1,.51-1H4.2a2.81,2.81,0,0,1,.75,1Zm0,16.94H4.95a2.89,2.89,0,0,1-.75,1H9.88A3,3,0,0,1,9.38,19.17ZM9.3,2.73H5.11a8.53,8.53,0,0,1,.14,1.33h4V3.71Q9.28,3,9.3,2.73Zm0,14.62h-4a7.63,7.63,0,0,1-.14,1.31H9.3q0-.26,0-1Zm0-12.78h-4V5.88h4Zm0,1.82h-4V7.71h4Zm0,1.83h-4V9.53h4Zm0,1.82h-4v1.33h4Zm0,1.83h-4v1.31h4Zm0,1.83h-4V15h4Zm0,1.82h-4v1.33h4Z"/><path d="M21.6.56H38.51A36.39,36.39,0,0,1,42.58.7a6.34,6.34,0,0,1,4,2,4.77,4.77,0,0,1,1.13,3.19,4.81,4.81,0,0,1-1.59,3.69,7.42,7.42,0,0,1-3.92,1.68l3.51,6.56a4.34,4.34,0,0,0,2.08,2,5.75,5.75,0,0,0,2,.33v.71H40.14l-5.29-9.58H33.21v5.5a8.91,8.91,0,0,0,.16,1.91A1.83,1.83,0,0,0,35,20a11.51,11.51,0,0,0,1.7.1h.16v.71H21.6v-.71h1a11.52,11.52,0,0,0,1.7-.1,1.83,1.83,0,0,0,1.61-1.37A9.11,9.11,0,0,0,26,16.76V4.65a9.2,9.2,0,0,0-.16-1.93,1.81,1.81,0,0,0-1.61-1.35,11.52,11.52,0,0,0-1.7-.1h-1Zm9.28,1.67v-1H25.79a2.81,2.81,0,0,1,.75,1ZM31,19.17H26.55a2.89,2.89,0,0,1-.75,1h5.69A3,3,0,0,1,31,19.17Zm-.1-16.43H26.71a8.53,8.53,0,0,1,.14,1.33h4Zm0,14.62h-4a7.63,7.63,0,0,1-.14,1.31h4.18q0-.26,0-1Zm0-12.78h-4V5.88h4Zm0,1.82h-4V7.71h4Zm0,1.83h-4V9.53h4Zm0,1.82h-4v1.33h4Zm0,1.83h-4v1.31h4Zm0,1.83h-4V15h4Zm0,1.82h-4v1.33h4Zm2.32-5h1.9a5.29,5.29,0,0,0,3.46-1,3.49,3.49,0,0,0,1-1.64,6.19,6.19,0,0,0,.31-2,4.52,4.52,0,0,0-1.57-3.81,4.25,4.25,0,0,0-2.15-.82,12.36,12.36,0,0,0-1.35-.07H33.21ZM42.47,10H39.22a5.89,5.89,0,0,1-3.5,1.23l.05.1h3.9A28.74,28.74,0,0,0,42.47,10Zm-2.53,1.83H36.06l.71,1.31h3.88Zm1,1.83H37.06L37.79,15h3.84Zm1,1.82H38.06l.72,1.33H42.6ZM43.13,2.23a5.46,5.46,0,0,0-1.5-.71,16.44,16.44,0,0,0-3.42-.25,6.83,6.83,0,0,1,1.19,1Zm-.26,15.12H39.06l.72,1.31h3.79Zm1.61-9.13H40.37a4.94,4.94,0,0,1-.68,1.31h3.55A5.4,5.4,0,0,0,44.48,8.22Zm-.74-5.48H39.81a6.68,6.68,0,0,1,.66,1.33h4.21A4.71,4.71,0,0,0,43.75,2.73Zm.1,16.43H40.07l.52,1h3.76ZM45.06,6.38H40.72a8.28,8.28,0,0,1-.21,1.33h4.24A5.32,5.32,0,0,0,45.06,6.38Zm-.19-1.82H40.6a6.58,6.58,0,0,1,.14,1.31h4.35A5.23,5.23,0,0,0,44.87,4.57Z"/><path d="M85.14,13l2.41-5.21a6.16,6.16,0,0,0,.66-2.53,3.93,3.93,0,0,0-1.9-3.42,3.93,3.93,0,0,0-1.71-.6V.56H95.26v.71q-3.88.1-6.55,6L82.15,21.6h-.53L73.71,6.26,66.6,21.6h-.53L57.66,5.29q-.81-1.56-1.11-2a4.06,4.06,0,0,0-2.46-1.85,6,6,0,0,0-1.41-.14h-.6V.56H67v.71h-.68a3.09,3.09,0,0,0-1.63.3.69.69,0,0,0-.33.63,2.71,2.71,0,0,0,.36,1.18L69.61,13l3.6-7.74a21.14,21.14,0,0,0-1.11-2,4.2,4.2,0,0,0-2.5-1.83,7.16,7.16,0,0,0-1-.15V.56H82.5v.71h-.7a3,3,0,0,0-1.61.3.69.69,0,0,0-.33.63,2.71,2.71,0,0,0,.36,1.18ZM61.76,2.23a2.71,2.71,0,0,1,.33-1h-6.7a6.26,6.26,0,0,1,1.2,1Zm0,.51H57a9.49,9.49,0,0,1,.64,1.07l.12.26h4.51L62,3.58A2.87,2.87,0,0,1,61.76,2.73Zm.77,1.83H58l.68,1.31h4.5Zm.93,1.82H59l.67,1.33h4.48Zm.93,1.83H59.9l.68,1.31h4.47ZM65.32,10H60.85l.68,1.33H66Zm.94,1.83H61.79l.68,1.31h4.46Zm.93,1.83H62.73L63.42,15h4.43Zm.92,1.82H63.68l.68,1.33h3.55l.41-.9Zm-.42,1.83H64.62l.68,1.31h1.78Zm-.83,1.82H65.56l.68,1.33ZM77.31,2.23a2.71,2.71,0,0,1,.33-1h-6.7a7.46,7.46,0,0,1,1.22,1Zm0,.51H72.54a8.94,8.94,0,0,1,.64,1.07l.14.26h4.5l-.23-.48A2.87,2.87,0,0,1,77.31,2.73Zm.77,1.83h-4.5l.67,1.31h4.5ZM79,6.38H74.52l.67,1.33h4.5Zm.93,1.83H75.46l.67,1.31h4.48ZM80.86,10H76.39l.68,1.33h4.46Zm.93,1.83H77.33L78,13.18h4.44Zm.93,1.83H78.28L79,15h4.43Zm.93,1.82H79.22l.68,1.33h3.55l.4-.9Zm-.42,1.83H80.16l.68,1.31h1.78Zm-.83,1.82H81.11l.68,1.33ZM90.47,2.23,90.66,2l.26-.34.29-.37H86.64a12.34,12.34,0,0,1,1.07,1Zm-.36.51h-2a4.39,4.39,0,0,1,.78,2.09A19.29,19.29,0,0,1,90.12,2.73Z"/><path d="M114.42,20.14v.71H98.37v-.71h1A11.52,11.52,0,0,0,101,20a1.83,1.83,0,0,0,1.61-1.37,9.11,9.11,0,0,0,.16-1.91V4.65a9.2,9.2,0,0,0-.16-1.93A1.81,1.81,0,0,0,101,1.37a11.52,11.52,0,0,0-1.7-.1h-1V.56h16.05v.71h-1a4.74,4.74,0,0,0-2.73.53,2.17,2.17,0,0,0-.68,1.5A11.83,11.83,0,0,0,110,4.65V16.76a8.91,8.91,0,0,0,.16,1.91A1.83,1.83,0,0,0,111.76,20a11.51,11.51,0,0,0,1.7.1ZM107.75,2.23a2.72,2.72,0,0,1,.51-1h-5.69a2.81,2.81,0,0,1,.75,1Zm0,16.94h-4.43a2.89,2.89,0,0,1-.75,1h5.69A3,3,0,0,1,107.75,19.17Zm-.08-16.43h-4.18a8.53,8.53,0,0,1,.14,1.33h4V3.71Q107.65,3,107.67,2.73Zm0,14.62h-4a7.63,7.63,0,0,1-.14,1.31h4.18q0-.26,0-1Zm0-12.78h-4V5.88h4Zm0,1.82h-4V7.71h4Zm0,1.83h-4V9.53h4Zm0,1.82h-4v1.33h4Zm0,1.83h-4v1.31h4Zm0,1.83h-4V15h4Zm0,1.82h-4v1.33h4Z"/><path d="M131.84.56l12,11.14v-5q0-3.42-1.87-4.7a4.55,4.55,0,0,0-2.64-.77V.56h10.34v.71a5,5,0,0,0-3.19,1,4.54,4.54,0,0,0-1.38,2,7.49,7.49,0,0,0-.36,2.45V21.51h-.67L125.78,4.4V14.66a7.09,7.09,0,0,0,.67,3.36,4,4,0,0,0,2.35,1.9,4.84,4.84,0,0,0,1.5.22v.71H120v-.71a4.94,4.94,0,0,0,3.17-1,4.55,4.55,0,0,0,1.38-2,7.55,7.55,0,0,0,.36-2.46v-11L124.17,3a9.69,9.69,0,0,0-1.59-1.12,4.1,4.1,0,0,0-1.31-.53,5.9,5.9,0,0,0-1-.08h-.12V.56Zm-1.7,1.67-1-1h-6.37a11.51,11.51,0,0,1,1.45,1Zm-6.33,17.24a7.06,7.06,0,0,1-.87.67h3a3.71,3.71,0,0,1-.52-.67Zm.46-.51h1a5.25,5.25,0,0,1-.26-1.19A4.4,4.4,0,0,1,124.28,19Zm6.41-16.23h-5.85l.66.57.81.75h5.8Zm2,1.83h-5.8l1.42,1.31h5.8Zm2,1.82h-5.78l1.42,1.33H136Zm2,1.83h-5.77l1.41,1.31H138Zm2,1.82h-5.77l1.42,1.33h5.77Zm2,1.83h-5.78l1.42,1.31h5.77Zm2,1.83h-5.77L138.07,15h5.77ZM144,15.52h-5.4L140,16.84h4Zm0,1.83h-3.45L142,18.66h2ZM142.88,1.93h1.65a3.94,3.94,0,0,1,.52-.66h-3A10,10,0,0,1,142.88,1.93ZM144,19.17h-1.48L144,20.56Zm-.66-16.73A3.93,3.93,0,0,1,144,3.49a6.32,6.32,0,0,1,.31-1.05Z"/><path d="M191.83.56V7.9h-.66a24.77,24.77,0,0,0-4.73-4.84A7.52,7.52,0,0,0,183,1.39a10.6,10.6,0,0,0-1.72-.12h-3.19V9.84h.78a5.47,5.47,0,0,0,3.8-1.37,9.42,9.42,0,0,0,1.79-2.16h.74v7.79h-.74a7.41,7.41,0,0,0-1.91-2.2,6.56,6.56,0,0,0-2-1.12,5.33,5.33,0,0,0-1.7-.23h-.78v6.21a8.91,8.91,0,0,0,.16,1.91A1.83,1.83,0,0,0,179.91,20a11.51,11.51,0,0,0,1.7.1h1v.71H166.53v-.71h1a11.52,11.52,0,0,0,1.7-.1,1.83,1.83,0,0,0,1.61-1.37,9.11,9.11,0,0,0,.16-1.91V4.65a9.2,9.2,0,0,0-.16-1.93,1.81,1.81,0,0,0-1.61-1.35,11.52,11.52,0,0,0-1.7-.1h-1V.56Zm-16,1.67v-1h-5.09a2.81,2.81,0,0,1,.75,1Zm.1,16.94h-4.43a2.89,2.89,0,0,1-.75,1h5.69A3,3,0,0,1,175.91,19.17Zm-.1-16.43h-4.17a8.53,8.53,0,0,1,.14,1.33h4Zm0,14.62h-4a7.63,7.63,0,0,1-.14,1.31h4.18q0-.26,0-1Zm0-12.78h-4V5.88h4Zm0,1.82h-4V7.71h4Zm0,1.83h-4V9.53h4Zm0,1.82h-4v1.33h4Zm0,1.83h-4v1.31h4Zm0,1.83h-4V15h4Zm0,1.82h-4v1.33h4Zm5.62-5.07A7.55,7.55,0,0,1,183.59,12V10.45Zm.15-.51h2V8.44A6.54,6.54,0,0,1,181.58,9.94Zm8.13-7.51V1.27h-4.87a17.5,17.5,0,0,1,1.79,1.16Zm0,.51H187.3a18.44,18.44,0,0,1,2.42,2.34Z"/><path d="M209.26,15.22H200.8a3.25,3.25,0,0,0-.19,1.08,3.91,3.91,0,0,0,1,2.6,3.09,3.09,0,0,0,1.42,1,9.46,9.46,0,0,0,2,.27v.71H193.92v-.71q3-.11,5.93-5.22L208.29,0H209l9.5,17a10,10,0,0,0,1.37,2A3.5,3.5,0,0,0,222,20.07a7.31,7.31,0,0,0,1.05.07h.42v.71h-16v-.71H209a2.16,2.16,0,0,0,1.44-.44,1.2,1.2,0,0,0,.48-1,2.36,2.36,0,0,0-.34-1.08Zm-11.7,4a7.19,7.19,0,0,1-1.35,1h3.46a3.77,3.77,0,0,1-.46-1Zm.52-.51h1q0-.31,0-.41t.08-.89A13.79,13.79,0,0,1,198.08,18.66Zm10.72-4.16-3.91-7.08L201,14.51Zm1.71-6.79-.75-1.33h-4.29l-.18.29.57,1Zm-1-1.83-.75-1.31h-2.21l-.77,1.31Zm2.05,3.65-.74-1.31h-4.65l.74,1.31Zm-3.08-5.47-.82-1.45-.83,1.45Zm4.1,7.3L211.82,10h-4.66l.74,1.33Zm1,1.82-.75-1.31h-4.66l.72,1.31Zm1,1.83-.74-1.31h-4.69l.72,1.31Zm1,1.83-.74-1.33h-4.7l.72,1.33Zm-4,2.32a1.87,1.87,0,0,1-.56,1h6.4l-.55-1Zm5-.51-.74-1.31h-4.72l.14.26a2.73,2.73,0,0,1,.36,1.05Z"/><path d="M252.32,2.52l-9.58,18.33h-.57l-10-16.37V14.66a7.09,7.09,0,0,0,.67,3.36,4,4,0,0,0,2.35,1.9,4.84,4.84,0,0,0,1.5.22v.71H226.36v-.71a4.94,4.94,0,0,0,3.17-1,4.55,4.55,0,0,0,1.38-2,7.55,7.55,0,0,0,.36-2.46V3a4.31,4.31,0,0,0-4-1.76h-.83V.56h11.79l7.66,12.65L252.45.56h11.48v.71h-1a9.76,9.76,0,0,0-1.76.12,2.36,2.36,0,0,0-1,.42,2.17,2.17,0,0,0-.68,1.5,11.83,11.83,0,0,0-.05,1.34V16.76a8.91,8.91,0,0,0,.16,1.91A1.83,1.83,0,0,0,261.27,20a10.07,10.07,0,0,0,1.7.11h1v.71H247.88v-.71h1a10.08,10.08,0,0,0,1.7-.11,1.81,1.81,0,0,0,1.61-1.35,9,9,0,0,0,.16-1.91Zm-22.12,17a7.06,7.06,0,0,1-.87.67h3a3.71,3.71,0,0,1-.52-.67Zm6-17.24-.59-1h-5.28a4.44,4.44,0,0,1,1.26,1ZM230.67,19h1a5.25,5.25,0,0,1-.26-1.19A4.4,4.4,0,0,1,230.67,19Zm5.84-16.23H232q.22.33.67,1.07l.16.26h4.47Zm1.11,1.83h-4.47l.81,1.31h4.47Zm1.11,1.82h-4.46l.79,1.33h4.47Zm1.11,1.83h-4.46l.79,1.31h4.47ZM240.94,10h-4.46l.79,1.33h4.47ZM242,11.87h-4.46l.79,1.31h4.47Zm1.11,1.83h-4.46l.79,1.31H244Zm1.11,1.82H239.8l.79,1.33H244l.48-.9Zm-.48,1.83h-2.87l.79,1.31h1.38Zm-1,1.82H242l.42.71Zm14.44,0h-4.43a3,3,0,0,1-.75,1h5.69A3,3,0,0,1,257.26,19.17Zm-.1-1.82h-4a7.63,7.63,0,0,1-.14,1.31h4.18q0-.27,0-1Zm.1-15.12a3,3,0,0,1,.51-1h-4.63v1Zm-.08.51h-4V4.06h4V3.71Q257.16,3,257.18,2.73Zm0,1.83h-4V5.88h4Zm0,1.82h-4V7.71h4Zm0,1.83h-4V9.53h4Zm0,1.82h-4v1.33h4Zm0,1.83h-4v1.31h4Zm0,1.83h-4V15h4Zm0,1.82h-4v1.33h4Z"/><path d="M285.53,20.14v.71H269.48v-.71h1a11.52,11.52,0,0,0,1.7-.1,1.83,1.83,0,0,0,1.61-1.37,9.11,9.11,0,0,0,.16-1.91V4.65a9.2,9.2,0,0,0-.16-1.93,1.81,1.81,0,0,0-1.61-1.35,11.52,11.52,0,0,0-1.7-.1h-1V.56h16.05v.71h-1a4.74,4.74,0,0,0-2.73.53,2.17,2.17,0,0,0-.68,1.5,11.83,11.83,0,0,0-.05,1.34V16.76a8.91,8.91,0,0,0,.16,1.91A1.83,1.83,0,0,0,282.86,20a11.51,11.51,0,0,0,1.7.1ZM278.86,2.23a2.72,2.72,0,0,1,.51-1h-5.69a2.81,2.81,0,0,1,.75,1Zm0,16.94h-4.43a2.89,2.89,0,0,1-.75,1h5.69A3,3,0,0,1,278.86,19.17Zm-.08-16.43h-4.18a8.53,8.53,0,0,1,.14,1.33h4V3.71Q278.76,3,278.78,2.73Zm0,14.62h-4a7.63,7.63,0,0,1-.14,1.31h4.18q0-.26,0-1Zm0-12.78h-4V5.88h4Zm0,1.82h-4V7.71h4Zm0,1.83h-4V9.53h4Zm0,1.82h-4v1.33h4Zm0,1.83h-4v1.31h4Zm0,1.83h-4V15h4Zm0,1.82h-4v1.33h4Z"/><path d="M291.08,20.85v-.71h1a11.52,11.52,0,0,0,1.7-.1,1.83,1.83,0,0,0,1.61-1.37,9.11,9.11,0,0,0,.16-1.91V4.65a9.2,9.2,0,0,0-.16-1.93,1.81,1.81,0,0,0-1.61-1.35,11.52,11.52,0,0,0-1.7-.1h-1V.56h16.05v.71h-1a4.74,4.74,0,0,0-2.73.53,2.17,2.17,0,0,0-.68,1.5,11.83,11.83,0,0,0-.05,1.34V20.14h2.39a10.13,10.13,0,0,0,3.61-.59,15.41,15.41,0,0,0,5-3.6A25.28,25.28,0,0,0,316,13.43h.67v7.42Zm9.38-18.62a2.72,2.72,0,0,1,.51-1h-5.69a2.81,2.81,0,0,1,.75,1Zm-.1,16.94H296a2.89,2.89,0,0,1-.75,1h5.09Zm0-16.43h-4.18a8.53,8.53,0,0,1,.14,1.33h4V3.71Q300.36,3,300.37,2.73Zm0,14.62h-4a7.63,7.63,0,0,1-.14,1.31h4.17Zm0-12.78h-4V5.88h4Zm0,1.82h-4V7.71h4Zm0,1.83h-4V9.53h4Zm0,1.82h-4v1.33h4Zm0,1.83h-4v1.31h4Zm0,1.83h-4V15h4Zm0,1.82h-4v1.33h4Zm11.06,3.25a11.78,11.78,0,0,1-2.5,1.37h5.62V18.77Zm.68-.52h2.43V16A19.48,19.48,0,0,1,312.1,18.25Z"/><path d="M337.28,10.75l2.6-3.62a5.29,5.29,0,0,0,1.15-3,2.59,2.59,0,0,0-.6-1.82,3.31,3.31,0,0,0-2.57-1h-.57V.56h11.29v.71a6.71,6.71,0,0,0-3.23,1.07,12,12,0,0,0-2.53,2.21,32.63,32.63,0,0,0-2.28,2.91l-3,4.25v5a8.91,8.91,0,0,0,.16,1.91A1.83,1.83,0,0,0,339.31,20a11.51,11.51,0,0,0,1.7.1h1v.71H325.92v-.71h1a11.52,11.52,0,0,0,1.7-.1,1.83,1.83,0,0,0,1.61-1.37,9,9,0,0,0,.16-1.91V13.21l-7-9.84a5.24,5.24,0,0,0-1.63-1.57,4.25,4.25,0,0,0-2.13-.52H319V.56h16.16v.71H334q-2.35,0-2.35,1.12a2.41,2.41,0,0,0,.55,1.33ZM323.42,2.23h5.35a1.86,1.86,0,0,1,.55-1h-7.05A5.58,5.58,0,0,1,323.42,2.23Zm1.34,1.83h4.76l-.29-.42a2.74,2.74,0,0,1-.44-.9h-5Zm1.3,1.82h4.76l-.93-1.31h-4.76Zm1.31,1.83h4.74l-.94-1.33h-4.74Zm1.3,1.82h4.74l-.94-1.31h-4.74ZM330,11.36h4.73L333.77,10H329Zm5.32,7.81h-4.43a2.73,2.73,0,0,1-.75,1h5.7A3.06,3.06,0,0,1,335.3,19.17Zm-.1-6V12.06l-.14-.19h-4.73l.83,1.16v.15Zm0,4.17h-4a7.63,7.63,0,0,1-.14,1.31h4.18q0-.3,0-1Zm0-3.65h-4V15h4Zm0,1.82h-4v1.33h4Zm8.23-13.29q.33-.34,1-1h-4a5.49,5.49,0,0,1,.81,1Zm-.46.51H341.5a4.69,4.69,0,0,1,.27,1.61A17.62,17.62,0,0,1,343,2.73Z"/></svg>