<svg id="dc217546-836c-4714-bd8b-adbc1c6f3023" data-name="Layer 1" xmlns="http://www.w3.org/2000/svg" viewBox="0 0 348.58 21.6"><title>logo--filled</title><path d="M16.05,20.14v.71H0v-.71H1a10.71,10.71,0,0,0,1.7-.1,1.83,1.83,0,0,0,1.61-1.36,9.33,9.33,0,0,0,.16-1.92V4.65a9.3,9.3,0,0,0-.16-1.93A1.8,1.8,0,0,0,2.67,1.37,10.71,10.71,0,0,0,1,1.27H0V.56H16.05v.71h-1a4.74,4.74,0,0,0-2.73.53,2.13,2.13,0,0,0-.69,1.51c0,.29-.05.74-.05,1.34V16.76a9.18,9.18,0,0,0,.16,1.92A1.83,1.83,0,0,0,13.38,20a10.71,10.71,0,0,0,1.7.1Z"/><path d="M21.6.56H38.51A36.13,36.13,0,0,1,42.58.7a6.29,6.29,0,0,1,4,2,4.78,4.78,0,0,1,1.14,3.19,4.81,4.81,0,0,1-1.59,3.69,7.38,7.38,0,0,1-3.92,1.68l3.51,6.56a4.31,4.31,0,0,0,2.08,2,5.8,5.8,0,0,0,2,.33v.71H40.14l-5.29-9.58H33.21v5.49a8.54,8.54,0,0,0,.16,1.92A1.83,1.83,0,0,0,35,20a10.63,10.63,0,0,0,1.7.1h.16v.71H21.6v-.71h1a10.49,10.49,0,0,0,1.69-.1,1.83,1.83,0,0,0,1.62-1.36A9.33,9.33,0,0,0,26,16.76V4.65a9.3,9.3,0,0,0-.16-1.93,1.81,1.81,0,0,0-1.62-1.35,10.49,10.49,0,0,0-1.69-.1h-1Zm11.61,10h1.9a5.24,5.24,0,0,0,3.45-1,3.35,3.35,0,0,0,1-1.64,6.16,6.16,0,0,0,.32-2,4.53,4.53,0,0,0-1.57-3.81,4.24,4.24,0,0,0-2.15-.82,11.25,11.25,0,0,0-1.35-.07H33.21Z"/><path d="M85.14,13l2.41-5.21a6.26,6.26,0,0,0,.65-2.53,3.93,3.93,0,0,0-1.9-3.42,3.85,3.85,0,0,0-1.71-.6V.56H95.26v.71q-3.89.1-6.55,6L82.15,21.6h-.54L73.71,6.26,66.6,21.6h-.53L57.66,5.29q-.81-1.56-1.11-2a4.06,4.06,0,0,0-2.46-1.84,6,6,0,0,0-1.41-.14h-.6V.56H67v.71h-.69a3.07,3.07,0,0,0-1.62.3.7.7,0,0,0-.33.63,2.83,2.83,0,0,0,.35,1.18L69.61,13l3.6-7.74a20.92,20.92,0,0,0-1.11-2,4.25,4.25,0,0,0-2.5-1.83,9,9,0,0,0-1-.15V.56H82.5v.71h-.7a3,3,0,0,0-1.61.3.7.7,0,0,0-.33.63,2.72,2.72,0,0,0,.36,1.18Z"/><path d="M114.42,20.14v.71h-16v-.71h1A10.63,10.63,0,0,0,101,20a1.83,1.83,0,0,0,1.61-1.36,8.66,8.66,0,0,0,.16-1.92V4.65a8.64,8.64,0,0,0-.16-1.93A1.8,1.8,0,0,0,101,1.37a10.63,10.63,0,0,0-1.7-.1h-1V.56h16v.71h-1a4.74,4.74,0,0,0-2.73.53A2.17,2.17,0,0,0,110,3.31c0,.29,0,.74,0,1.34V16.76a9.18,9.18,0,0,0,.16,1.92A1.83,1.83,0,0,0,111.76,20a10.49,10.49,0,0,0,1.69.1Z"/><path d="M131.84.56l12,11.14v-5q0-3.42-1.88-4.7a4.53,4.53,0,0,0-2.64-.77V.56h10.34v.71a4.94,4.94,0,0,0-3.18,1,4.54,4.54,0,0,0-1.39,2,7.73,7.73,0,0,0-.35,2.45V21.51h-.67L125.78,4.4V14.66a7.07,7.07,0,0,0,.67,3.36,4,4,0,0,0,2.35,1.9,4.75,4.75,0,0,0,1.51.22v.71H120v-.71a4.94,4.94,0,0,0,3.17-1,4.52,4.52,0,0,0,1.38-2,7.51,7.51,0,0,0,.36-2.46v-11L124.17,3a9.34,9.34,0,0,0-1.59-1.12,4.33,4.33,0,0,0-1.31-.54,6.45,6.45,0,0,0-1-.08h-.13V.56Z"/><path d="M191.83.56V7.9h-.65a24.9,24.9,0,0,0-4.73-4.84A7.61,7.61,0,0,0,183,1.39a10.78,10.78,0,0,0-1.72-.12h-3.18V9.84h.77a5.49,5.49,0,0,0,3.81-1.36,9.71,9.71,0,0,0,1.79-2.16h.73v7.79h-.73a7.53,7.53,0,0,0-1.92-2.2,6.43,6.43,0,0,0-2-1.12,5.19,5.19,0,0,0-1.7-.24h-.77v6.21a8.54,8.54,0,0,0,.16,1.92A1.83,1.83,0,0,0,179.91,20a10.63,10.63,0,0,0,1.7.1h1v.71H166.53v-.71h1a10.49,10.49,0,0,0,1.69-.1,1.83,1.83,0,0,0,1.62-1.36,9.33,9.33,0,0,0,.16-1.92V4.65a9.3,9.3,0,0,0-.16-1.93,1.81,1.81,0,0,0-1.62-1.35,10.49,10.49,0,0,0-1.69-.1h-1V.56Z"/><path d="M209.26,15.22H200.8a3.15,3.15,0,0,0-.19,1.08,3.88,3.88,0,0,0,1,2.59,3.1,3.1,0,0,0,1.42,1,10.42,10.42,0,0,0,2,.27v.71H193.92v-.71q3-.11,5.94-5.22L208.29,0H209l9.5,17a10.13,10.13,0,0,0,1.37,2A3.52,3.52,0,0,0,222,20.07a6.68,6.68,0,0,0,1.05.07h.42v.71h-16v-.71H209a2.19,2.19,0,0,0,1.44-.44,1.21,1.21,0,0,0,.47-1,2.33,2.33,0,0,0-.34-1.08Zm-.46-.71-3.91-7.09L201,14.51Z"/><path d="M252.32,2.52l-9.58,18.33h-.57l-10-16.37V14.66a7.07,7.07,0,0,0,.67,3.36,4,4,0,0,0,2.35,1.9,4.75,4.75,0,0,0,1.51.22v.71H226.36v-.71a4.92,4.92,0,0,0,3.17-1,4.52,4.52,0,0,0,1.38-2,7.51,7.51,0,0,0,.36-2.46V3a4.29,4.29,0,0,0-4-1.77h-.84V.56h11.79l7.65,12.65L252.45.56h11.48v.71h-1a9.52,9.52,0,0,0-1.76.12,2.38,2.38,0,0,0-1,.41,2.17,2.17,0,0,0-.69,1.51c0,.29-.05.74-.05,1.34V16.76a9.18,9.18,0,0,0,.16,1.92A1.83,1.83,0,0,0,261.27,20a10.27,10.27,0,0,0,1.69.11h1v.71H247.88v-.71h1a10.41,10.41,0,0,0,1.7-.11,1.81,1.81,0,0,0,1.61-1.35,8.54,8.54,0,0,0,.16-1.92Z"/><path d="M285.53,20.14v.71h-16v-.71h1a10.71,10.71,0,0,0,1.7-.1,1.83,1.83,0,0,0,1.61-1.36,9.33,9.33,0,0,0,.16-1.92V4.65a9.3,9.3,0,0,0-.16-1.93,1.8,1.8,0,0,0-1.61-1.35,10.71,10.71,0,0,0-1.7-.1h-1V.56h16v.71h-1a4.8,4.8,0,0,0-2.74.53,2.17,2.17,0,0,0-.68,1.51,11.3,11.3,0,0,0-.05,1.34V16.76a9.18,9.18,0,0,0,.16,1.92A1.83,1.83,0,0,0,282.86,20a10.63,10.63,0,0,0,1.7.1Z"/><path d="M291.08,20.85v-.71h1a10.49,10.49,0,0,0,1.69-.1,1.83,1.83,0,0,0,1.62-1.36,9.33,9.33,0,0,0,.16-1.92V4.65a9.3,9.3,0,0,0-.16-1.93,1.81,1.81,0,0,0-1.62-1.35,10.49,10.49,0,0,0-1.69-.1h-1V.56h16.05v.71h-1a4.8,4.8,0,0,0-2.74.53,2.17,2.17,0,0,0-.68,1.51,10.82,10.82,0,0,0-.06,1.34V20.14h2.4a10.19,10.19,0,0,0,3.61-.59,15.47,15.47,0,0,0,5-3.59A27.7,27.7,0,0,0,316,13.43h.67v7.42Z"/><path d="M337.28,10.75l2.6-3.63a5.24,5.24,0,0,0,1.15-3,2.57,2.57,0,0,0-.6-1.81,3.3,3.3,0,0,0-2.57-1h-.58V.56h11.3v.71a6.72,6.72,0,0,0-3.23,1.07,12.2,12.2,0,0,0-2.53,2.21,32.61,32.61,0,0,0-2.28,2.91l-3,4.26v5a9.18,9.18,0,0,0,.16,1.92A1.84,1.84,0,0,0,339.31,20a10.49,10.49,0,0,0,1.69.1h1v.71H325.92v-.71h1a10.63,10.63,0,0,0,1.7-.1,1.83,1.83,0,0,0,1.61-1.36,9,9,0,0,0,.17-1.92V13.21l-7-9.85a5.27,5.27,0,0,0-1.62-1.57,4.21,4.21,0,0,0-2.14-.52H319V.56h16.16v.71H334c-1.56,0-2.35.38-2.35,1.12a2.38,2.38,0,0,0,.55,1.33Z"/></svg>