<svg data-name="Layer 1" xmlns="http://www.w3.org/2000/svg" viewBox="0 0 81.51 51.39"><title>bison</title><path d="M61.19 10.82v.06zM55.33 22.42zM64.31 11.78zM60.3 11.93zM47.1 30.11zM31.9 15.34v.08zM55.15 33.14zM49.43 38.39zM35.71 36.01zM52.06 28.34zM63.82 36.01v.06zM64.93 35.66zM53.75 32.18zM58.31 21.41v-.05s-.01.03 0 .05zM59 18.01zM38.14 33.1zM60.93 15.15zM22.11 48.92zM22.11 48.92c-.87 1.2-.69 1.95.58 2.4a1.05 1.05 0 0 0 1.39-.61 1.58 1.58 0 0 0-.77-1.7c-.37-.15-.27.28-.25.54-.44-.01-.45-.69-.95-.63zm1 .72c.23.27.65.42.6.87 0 0-.27.11-.28.09-.21-.29-.5-.59-.35-.96zM46.92 29.63l.17.45c.21-.3.61-.49.69-.1.12.6.63.49.92.72v.07h.07l.53-.09c-.2-.13-.38-.27-.22-.55.69-1.23.59-1.46-.79-1.71-.06.43.52.45.52.5 0 .77-.52 0-.77.2s-.32.31-.48 0zm1.61 0s.07-.11.11-.12a.49.49 0 0 1 .18.06s-.07.12-.11.12a.51.51 0 0 1-.17-.02zM46.92 29.63zM47.1 30.11zM49.25 30.62zM48.27 5.61zM48.27 5.61h-.08c-.7.15-.17-1-.61-.72a15.47 15.47 0 0 0-2.15 1.74.17.17 0 0 0 0 .29c.19.1.47.12.53-.06.24-.7.52-.52.9-.12s.6-.07.7-.26.26-.76.71-.87zm-1.06.74l-.08.09s-.08 0-.08-.08 0-.06.07-.08zm.25-.66a1.18 1.18 0 0 1-.07.21l-.13-.14.12-.16s.09.07.08.1z"/><path d="M2.53 27.94a7.73 7.73 0 0 0-.26 2.07c0 .19 0 .32.2.34s.13-.15.17-.24c.15-.36.25-1.34.34-1.68a5.44 5.44 0 0 1 1.12-2.72A10.79 10.79 0 0 0 5 24.2a12.28 12.28 0 0 1 7.63-3.19 9.42 9.42 0 0 0 5.32-2.48 15.53 15.53 0 0 1 2.5-1.22c.27-.16.46.06.57.27a.38.38 0 0 1-.28.55 5.6 5.6 0 0 0-1.85 1 4.69 4.69 0 0 0-1.32 5c1 2.3 2.27 4.59 2.74 7.05a7.83 7.83 0 0 1-.14 3.83c-.32 1-1.69 2.2-.68 3.21 1.54 1.56 1.4 3.56 1.57 5.44.1 1.11.48 2.4-.62 3.34a.42.42 0 0 0 0 .33c.76.32.76 1.48 1.71 1.58 0-.38-.25-.88.13-1s.52.33.59.69c0 .06.19.09.29.13 0-.14.1-.28.13-.43.16-.68-.33-1.24-.55-1.74-.71-1.59-.16-3.15-.08-4.67a15 15 0 0 1 .59-4.29 14.36 14.36 0 0 1 1.17-2.27c.09-.16.29-.31.49-.1s0 .29-.09.41a4 4 0 0 0-1.08 2.17.73.73 0 0 0 .58 1c-.22.32.94-.21.29.5-1 1.08-.77 2.47-.41 3.69.3 1 .22 2.07.44 3 .29 1.19.32 2.37.53 3.55a1.69 1.69 0 0 0 .61.84.9.9 0 0 0 .74.22c.26-.13.13-.48.1-.75.27-.18.27.5.58.21s.14-.38 0-.62a8.31 8.31 0 0 1-.6-2.73c-.17-1-.79-1.92-1-2.94a1.58 1.58 0 0 1 .15-1.61 4.09 4.09 0 0 0 .66-2.6 4.22 4.22 0 0 1 1.24-2.82 6.71 6.71 0 0 0 1.24-2c.14-.36.74-.72.22-1.11a1.36 1.36 0 0 0-1.55 0c-.57.31-.92 1.06-1.78.87-.17 0-.43.13-.6-.1s.09-.42.24-.55a4.17 4.17 0 0 0 1.42-2.37c.16-.82.84-1.07 1.66-1a9.05 9.05 0 0 1 5.33 2.7 10.86 10.86 0 0 1 1.37 2.29.85.85 0 0 0 .6.48c.06-1-.83-1.54-1.1-2.37 0-.13-.22-.33-.19-.36s.27 0 .41.06a29.42 29.42 0 0 1 2.74 1.3 9.33 9.33 0 0 0 6.71 1.15c.95-.16 1.5-.06 1.66 1 0 .12.16.22.25.33a2.68 2.68 0 0 0 .26-.38c.08-.17-.35-.42.06-.52.06 0 .21.29.31.46a6.52 6.52 0 0 1 .4.72c.11.26.21.61.51.56s.25-.41.15-.65.09-.37.24-.44 1.69 1.29 1.62 1.57c0 0-.17.06-.28.08.19.93 1 1.43 1.58 2 .37.37 1 .11 1-.64a36.32 36.32 0 0 0-.57-5.82c0-.32-.18-.26-.38-.19-.45.14-.22.32-.12.6a5 5 0 0 1 0 3.63c-.05.14 0 .34-.27.31s-.2-.21-.23-.36c-.18-.88-.36-1.75-.54-2.64.35-.25.78-.45 0-.83s-.53-.7.11-.94c.2-.08.53.11.6-.21s-.31-.32-.48-.42c-.71-.38-.5-.59.11-.69.28 0 .16-.22.17-.33a.21.21 0 0 0-.31-.22c-1.33 1-1.59-1-2.58-1-.2 0-.4-.42-.59-.67-2.6-1.26-4.92-3-7.38-4.48a13.67 13.67 0 0 0-6.53-1.84c-1.59-.08-3.13-.73-4.77-.36-.33.08-.82-.29-.88-.93a2.17 2.17 0 0 0-2.06-1.95 1.08 1.08 0 0 1-1.17-.74c-.71-1.49-1.42-2.91-3.36-3-.17 0-.34-.08-.29-.27s.16-.34.27-.36c2.49-.41 4.49-2.17 7-2.5.61-.08 1.2.51 1.82 0 0 0 .19.16.17.22a.33.33 0 0 1-.23.2c-.35.06-.71.1-1.06.14-.06.29-.26.58.14.82a.87.87 0 0 1-.05 1.47c-.07 0-.26 0-.16.16s.14.06.21.07.41.31.6 0 .1-.7.44-.93.29-1 .62 0c.06.17.69-.31 1-.6s.46-.38.52.06c.27-.77 1.08-.82 1.65-1.1a5.52 5.52 0 0 0 3.08-3.08c.15-.4.53-1.54 1.27-1.19s.46 1.37.29 2.09a12.43 12.43 0 0 1-.83 2c-.65 1.44 2.05-.2 2.44-.68 1.5-1.86 1.89-4.36 3.66-6.06 2.12-2 4.14-4.28 7.34-4.71a2.8 2.8 0 0 1 2 .55c.19.12.48.28.31.55s-.56-.17-.83 0c-.14-.2.06-.61-.41-.6s0 .42-.2.58a3.24 3.24 0 0 1-2.21 0c-.24-.13-.38.05-.5.19s-.66.41-.51.72.33-.26.5-.2a16 16 0 0 1 3.07 1.19 6.62 6.62 0 0 0 2.11.63c1.53.36 1.86 1 1.93 2.21a4.46 4.46 0 0 0 .54 2.69c.09.12.35.35-.11.48-1.81.51-2.68 2.08-3.38 3.55a15.58 15.58 0 0 0-1 5.5c0 .24 0 .56.25.6s.22-.34.26-.5c.29-1.13.49-2.28.79-3.4.57-2.1 1.18-4.17 3.32-5.34a4 4 0 0 0 1.84-3.38c.08-.64-.49-.86-.71-1.3-.83-1.65-2.47-1.47-3.9-1.72a2.87 2.87 0 0 1-2.1-1c-.29-.06-.84.09-.83-.14 0-.44.51-.35.86-.36s.39 0 .47.26l.21.21h.06c.31-.55 1-.36 1.28-.31a8.49 8.49 0 0 1 3.11 1c.14.09.18.31.43 0 .5-.52 1-.18 1.27.27s1 .59 1.39 1a.36.36 0 0 0 .22.09c.49 0 .56 0 .69.66a1.15 1.15 0 0 0 1.14.85c2.36.35 3.2 2.32 4.39 3.92.11.15.39.41.15.61a.77.77 0 0 1-.67.07c-.56-.25-1.08-.57-1.62-.87l-.1.48c-.46-.37-.85-1.42-1.49-.12-.07.14-.25 0-.35-.16a4.2 4.2 0 0 0-1.17-1.14c-.13 1 .82 1.36 1.29 1.93.73.88 0 .6-.35.66l-.08.15-.15-.15c-.32-.34-.78-.55-.76-1.16s-.55-.25-.85-.34c-.27.6-.26 1.34-.91 1.75-.06 0 0 .2-.05.3l.29-.06c.82-.2 1.21.33 1.56.92.19.08.31.22.14.4s-.31.06-.39-.12c-.47.28-.38-.66-.71-.39-.56.46.08.71.29 1a.33.33 0 0 1 0 .28c-.05.08-.18.1-.28.14-.21-.72-1.35-.66-1.31-1.58v-.07h-.07a4.36 4.36 0 0 0-.46-.57c-.15-.14-.52-.06-.39.09.74.94-.26 2 .19 2.88l.74.09v1.04l.41.13c-.27.35-.49.95-.8 1-.95.15-1 .08-.55.88a1.83 1.83 0 0 1 .22.9v.05c.33.31.82 0 1.16.24-.39.66-.68.73-1.16.28 0 .38-.28.5-.54.58-1.09.32-1.1.31-1.39 1a1.12 1.12 0 0 0-1-.58c.34.32-.4 1.21.69 1.24.3 0 0 .76 0 1.11s-.43 0-.57-.14c-.39-.47-.31 0-.26.14s.15.41-.08.59-.27.25-.13.39.25-.08.34-.16c.75-.74.81-.14.89.44-.19.65-.52 1.37.63 1.44h.31c0-.1 0-.24-.12-.28-1.24-.75.45-1.26.18-2 0-.06.39 0 .45.18a1.12 1.12 0 0 0 .9.77c-.07.2-.06.5-.43.38-.12 0-.29-.24-.3.08a5.14 5.14 0 0 1-.43 1.11c-1-.08-.59.62-.53 1s.17.55-.19.64-.63.22-.82-.2a4 4 0 0 0-.32-.63c-.16-.23-.2-.69-.64-.52a.87.87 0 0 0-.52.44c-.12.45.37.16.54.35a.84.84 0 0 1 .19.88c-.11.3-.16.72-.67.7a5.59 5.59 0 0 0-.79.06c.08.33-.44.75.1 1s.81.25 1.06-.26c.49-.22 1-.59 1.06.43a.48.48 0 0 0 .83.32c.26-.76 1.14-.78 1.49-1.38 0-.07 0-.55.29-.14.07.11.31.25 0 .45-1 .63-1.23 2.17-2.72 2.19-.09 0-.17.17-.27.22s.09.69-.36.53-.1-.5 0-.77c-.7.07-.78-.82-1.37-.92-.07.38.52.85.09 1s-.55-.51-.66-1c-.34-1.33-1.57-2.4-1.16-3.95-.34-.14-.46-.37-.22-.69.94-1.27.46-2.55 0-3.79-.57-1.54-1.36-3-.79-4.75 0-.08 0-.28-.1-.29s-.23.09-.29.25a4.73 4.73 0 0 0 .31 4.67c.34.56.1 1.48.1 2.24a.33.33 0 0 1-.18.24c-.2.06-.23-.11-.29-.26-.23-.61-.48-1.22-.74-1.83 0-.09-.14-.2-.22-.21s-.07.14-.09.23c-.14.67.61 1.58-.52 2l.87.8H50v-.07c.25-.22.55-.56.81-.15a1 1 0 0 1-.1 1.39c-1.11.89-.64 1.82-.07 2.67 1.45 2.15 2 4.65 2.71 7.06 0 .15 0 .37.07.46 1.18 1.22.72 2.87 1.09 4.29a3.48 3.48 0 0 1-.58 2.84 12.75 12.75 0 0 0-.93 1.51c-.08.15-.24.52 0 .48 1.55-.29.3 1.39 1.13 1.56-.14.23 0 .37.16.5.51.48 1.35.86 1.76.51s0-1.34-.4-1.69c-1.19-1.17-.33-1.39.61-1.7a1.26 1.26 0 0 0 .57-.38c.19-.24.34-.7.66-.38s.14.72 0 1.12-.4.19-.65 0a.64.64 0 0 0-.78 0c-.24.25 0 .51.11.75a1.52 1.52 0 0 1 .2.43c.15.57.41 1.52.75 1.45.6-.12.13-.94.26-1.45 0-.11 0-.34.05-.34.23 0 .16.2.23.32a1 1 0 0 0 1 .55c.4-.11.17-.61.19-.94.06-.68.29-1.4-.56-1.85a1.32 1.32 0 0 1-.41-.9c.58-1.45-.18-2.88 0-4.3a2.75 2.75 0 0 0 .1-.78c-.05-.3-.17-.7-.56-.66s-.15.45-.24.69.29.78-.23 1c-.18-.43-.82-.67-.51-1.3v-.35c1.29-1.3.84-2.78.56-4.3-.19-1 .5-1.46 1.48-1.11.11 0 .28.13.19.18-1.07.56-.11.81.13 1.23s.4 1.19.7 1.72a.66.66 0 0 1 .07.73c-.7 1.21 0 2.82-1.13 3.93-.21.21-.13.69 0 1a11.49 11.49 0 0 1 .89 5.08c0 .25 0 .57.29.56s.12-.37.17-.56a4.77 4.77 0 0 0-.25-2.62 4.42 4.42 0 0 1 0-3.78c.58-1-.08-2.16.4-3.2a4.47 4.47 0 0 1 .6-1.16c.46-.55 1.31-1 1.16-2-.07-.43.56-.7.8-.72.72-.07-.12.43.14.62.08.06.13.2.23.08.67-.82.51-.33.34.21a1.17 1.17 0 0 0 0 .32l.45-.32.56-.44c.23.36-.19.45-.27.68a2.36 2.36 0 0 0-.06.64c.47-.21.48-.73.74-1.08.13-.18.46-.47.5-.43.29.2.11.44 0 .68a2 2 0 0 0-.13.53c.52 0 .28-.83.83-.76 0 .43-.52 1-.2 1.13s.46-.65.72-1a2.83 2.83 0 0 0 .25-.5c.26.15.13.4.13.6 0 .85.33 1.62.26 2.55s.83-.29 1.31 0c.33-1 2.38-1 1.6-2.63 0 0 .15-.2.21-.19.29 0 .2.28.23.45s-.07.33.14.41a2.84 2.84 0 0 0 .08-.42v-.84c0-.28-.25-.93.25-1a1.55 1.55 0 0 1 1.67.29c1.07 1.18 2.15 2.33 3.24 3.49.14.15.13.56.45.41.13-.06.12-.4.17-.63.85-.33.75-1.26.83-1.83.19-1.3.25-2.54 1.63-3.19.53-.25 0-.31-.1-.4-.5-.66-.45-1.27.26-1.65 1-.55 1-2 2.27-2.39.14 0 0-.26 0-.41-.2-1.8-1.32-3.21-2-4.82 0-.1-.18-.16-.25-.25-.34-.44-.44 1-.73.12-.1-.3.12-.71-.23-1-.51-.44.42-.89 0-1.35.46-.28.55.34.89.36s.51.64.76.38-.16-.58-.38-.84a5.24 5.24 0 0 1-.52-.78.37.37 0 0 1 0-.32.2.2 0 0 1 .37 0c.08.14.11.31.31.14s0-.32 0-.38c.19-.45-1.7-.26-.34-1.09.13-.08-.44-.31-.66-.5s-.91-.38 0-.53a.12.12 0 0 0 0-.24c-.84-.15-1.18-1.45-2.33-1a.71.71 0 0 1-.93-.49c.18.07.39.15.51 0a.37.37 0 0 0-.28-.54c-1.09-.06-1.13-1.29-1.95-1.72-.31-.16-.5-.73-1.09-.77-.26 0-.65-.32-.25-.66s.16-.39-.18-.52-1.58.07-.32-.75c.11-.07-.12-.35-.36-.4-.61-.17-1.87.33-1.08-1.17 0 0-.21-.24-.34-.28A5.93 5.93 0 0 0 69 7.6a2.49 2.49 0 0 0 .48-.39s-.12-.34-.22-.36c-.9-.18-1.47-1.13-2.47-1-.13 0-.3.22-.32-.08 0-.06.13-.18.22-.2.26-.06.65-.08.51-.41a.72.72 0 0 0-.84-.29c-.29.12-.63.4-.83.06s.37-.3.47-.54.14-.22.12-.3-.12-.08-.25-.08c-.34.2-.65-.24-1 0a.35.35 0 0 1-.52-.12c-.1-.27.14-.31.34-.34s.34-.11.26-.29a.44.44 0 0 0-.39-.15c-1.7.42-2.92-.49-4-1.54-.78-.66-1.73-.43-2.56-.63a23.62 23.62 0 0 0-4.63-.93c-5.7-.31-11.49 2.73-15.08 7-.84 1-1.58 2.11-2.5 3.05-3.66 3.79-9.37 1.45-13.44 4.31-1.26.89-2.75 1.49-4 2.38a20.09 20.09 0 0 1-4.37 2.51c-2.34.84-4.73.91-6.88 2.27-1 .63-2.48 1-3 2.32-.38.92-1.75 1.8-2.64 2.74L0 28.11c.81.07 2.65-1.91 3.46-2.67a.94.94 0 0 0 .23-.12c-.42.91-.69 1.57-1.11 2.48zm50.76 7.47s0-.06.07-.08l.09.08-.08.09s-.07-.07-.08-.09zm.19-1c0 .21-.08.45-.28.45-.36 0-.12-.34-.24-.54.17-.07-.12-.41.23-.36s.3.27.3.48zm.22 1.6c0 .06-.05.12-.09.18s-.09-.11-.1-.17.05-.12.09-.18.1.1.1.17zm.23-1.08s0 .08-.08.08-.06 0-.08-.07l.07-.08zm.49-1l-.15.1-.21-.26.25-.12a2 2 0 0 1 .11.25zm0 3.43l-.1.27-.27-.21c0-.06.06-.16.08-.16a2.19 2.19 0 0 1 .29.07zm.94-2.9a.11.11 0 0 1-.07.08s-.06 0-.09-.07l.08-.09s.08.03.08.06zm.94 8.86c.21-.33.14-1 .61-1s0 .71.29 1.1c0 .69-.47 1.25-.63 1.91h-.15c-.04-.66-.58-1.32-.11-2.03zm-1.42-12.4l-.05.34-.11-.35zm.93-1v.13l-.13-.05zm.63.22c0 .05-.06.14-.1.15s-.37 0-.43-.18zm.12.77l-.07.08s-.08 0-.08-.08 0-.06.07-.08zm.24.72s0 .08-.08.08-.06 0-.08-.07l.08-.09zm.73-3c0 .06-.05.12-.09.18s-.09-.11-.1-.17.05-.12.09-.18.11.04.11.1zm-1.31-5.52h.13l-.05.13zm4.2-9.87c0 .1 0 .22-.16.08zm.21-.13l-.17.07c.01-.09 0-.22.17-.07zm.74.45s0 .08-.08.08-.06 0-.08-.07l.08-.08zm6.35-3.06s.08.08.07.09c-.14.25.17.77-.2.77s-.12-.51-.21-.81c.16-.35-.22-1.13.25-1.09.7.07-.15.69.09 1.04zm-.32 1.77c.06 0 .12.05.17.08l-.17.11-.18-.1c.08-.03.13-.09.19-.09zm.72 1.08a.88.88 0 0 1-.39.64c-.1-.32-.22-.64-.3-1 0-.17.07-.28.27-.28a.58.58 0 0 1 .43.64zM68 14.47c0 .1.12.23.09.3a3.06 3.06 0 0 1-.33.48l-.1-.26c-.01-.31.18-.4.34-.52zm.34-2.83s0 .08-.08.08-.06 0-.08-.07l.08-.08zm.73 3c.05.83-1 1.28-.75 2.16.1.37-.06.61-.34.57a.45.45 0 0 1-.28-.67c.44-.69.49-1.61 1.35-2.02zm.21-.13l-.16.06c-.01-.04-.02-.17.14-.02zm1.3 2.4a12 12 0 0 1-.73 2.77c-.07.17 0 .41-.32.42a2.5 2.5 0 0 1-1.14-1.44c-.09-.27-.76-.56-.19-.83s.28.42.45.63.14.68.56.67.48-.46.58-.77c.17-.52.24-1.06.39-1.58a.44.44 0 0 1 .37-.22c.27.1.03.27.01.39zm.84 1h-.13l.05-.13zm.8 2.32a1.44 1.44 0 0 1-.17.54c-.41.2-.67.87-1.3.42a.94.94 0 0 1-.43-1.14c.31-.67.18-1.55.91-2a3.52 3.52 0 0 1-.33 1.89c-.11.32-.33.75.13.87.22.06.56-.24.58-.7a1.62 1.62 0 0 1 .46-1.1c.31.38.1.83.13 1.25zm.16 1.37c-.2.1-.26-.26-.34-.42s0-.24 0-.37l.22.22c.19.2.31.5.1.6zm1.62-.1c-.24.26-.5-.2-.8-.16.21-.39-.07-.61-.31-.84s-.36-.77-.1-.94c.43-.28.54.24.68.53a3.53 3.53 0 0 1 .22.66c.08.26.65.41.31.75zm-.86-.11c0 .09 0 .22-.17.07zm1.47-1.06c0 .4.44.54.61.85a.48.48 0 0 1 0 .31s-.13.06-.25.11c-.21-.34-.44-.69-.65-1.06a1.75 1.75 0 0 1-.32-1.27c.59.14.59.6.63 1.06zm.12-1.21c0-.05-.1-.1-.11-.16s.07-.09.11-.14a1.24 1.24 0 0 1 .07.22s-.03.05-.05.08zm.42-4.57a.74.74 0 0 1-.64 0 .17.17 0 0 1 0-.09c.27-.14.49-.03.66.09zm.12 5s0 .08-.07.08-.06 0-.08-.07l.07-.08zm.49.66l-.15.1-.21-.26.25-.12a1.94 1.94 0 0 1 .13.29zm.35 3.66c.07.47 0 .89-.46.8-.68-.14-1.67-.06-1.61-1.23-.1 0-.21-.08-.25-.16-.4-.76.46-.9.68-.88a1.62 1.62 0 0 1 1.65 1.49zm.21-1.77c.25.17 0 .27-.06.41-.23 0-.27-.18-.13-.37a.2.2 0 0 1 .21-.02zm.11.52l-.09.08v-.13zm.31-2c-.23 0-.21-.25-.3-.4s-.16-.29.1-.28.19.3.3.43.07.2-.08.26zm.26 2.45l-.05.13-.08-.09zm.82 1.71c-.14-.63 0-1.39-.76-1.73.36-.41.83-.36 1 0a1.32 1.32 0 0 1-.25 1.73zm-1.51 4c.06-.08.13-.27.25-.31a4.82 4.82 0 0 0 2.37-1.64c.22-.3.57-.21.83.06s0 .46-.16.68c-.78 1.08-2 1.87-2.11 3.37a.32.32 0 0 1-.19.23c-.2.05-.21-.17-.3-.27-.4-.42 0-.8 0-1.2s.52-1-.42-.78c-.12 0-.23.09-.28-.17zm-.1 8l.07.17c-.11-.01-.28 0-.09-.17zM73 28.45s0-.06.07-.08l.08.08-.08.08s-.07-.06-.07-.08zm-1.95 2.16s0-.06.07-.08l.08.08-.08.08s-.06-.06-.07-.08zm0-7.1l-.18-.1c.06 0 .11-.1.17-.1s.12.05.18.09zm-.25 1.5c0-.06.05-.12.09-.18s.1.12.1.17-.05.12-.09.18-.1-.17-.1-.17zm-.71 4.68s0-.08.08-.08a.1.1 0 0 1 .08.07s0 .06-.07.08zm0-5l.08-.09s.08 0 .08.08a.11.11 0 0 1-.07.08s-.06-.13-.09-.15zm0-.91c.13-.09.21-.16.24-.15a.41.41 0 0 1 .22.18c0 .06 0 .25-.16.16a2.43 2.43 0 0 1-.39-.27zm-.29.18c.09 0 .15.16.22.24l-.2.14c-.06-.07-.16-.13-.18-.21s-.07-.35.11-.25zm-.4-.83c0-.06.05-.12.09-.18s.1.12.1.17-.05.12-.09.18-.14-.2-.14-.29zm.1-.76s-.08 0-.08-.08 0-.06.07-.08l.08.08zm-1 13.34a1.25 1.25 0 0 1 .22-.07s.06 0 .09.08-.1.1-.16.11-.14-.17-.19-.21zm0-12.45s0-.06.07-.08l.08.07-.07.08s-.16-.14-.17-.16zm-1 11.93c.43.09.18.6.43.83-.36.29 0 .79-.34 1.05-.11-.48-.23-1-.31-1.46-.13-.26-.14-.6.12-.51zm.37-7.8c0-.06-.1-.11-.1-.17s.05-.12.09-.18.1.12.1.17-.15.02-.19.08zm-.37 7.24l-.14-.11a1.23 1.23 0 0 1 .22-.07s.06 0 .09.08-.21 0-.27 0zm-.5-7.84s.07-.11.11-.12a.49.49 0 0 1 .18.06s-.07.12-.11.12a.51.51 0 0 1-.18-.06zm-.09-7.78c0-.21-.29-.47.07-.59s.34.2.45.4A9.44 9.44 0 0 0 71 22.13c.57.35 1.33 1 2.09.15.1-.11.25-.26.39-.12s-.1.25-.14.38a1.49 1.49 0 0 0 .6 2c.59.44 1.52.08 1.77.74.5 1.31.65 0 .68-.1.22-1.2.62-1.51 1.41-.39a1 1 0 0 0-.26.6c0 .49.27 1-.13 1.47a1.73 1.73 0 0 1-2.74-.33c-.26-.6-.76-1.49-1.13-1.43-1.14.18-.67-1.15-1.38-1.22.3-.75-.3-.93-.76-1-1.3-.18-2.13-1.18-3.08-1.85a2.8 2.8 0 0 1-1.41-2.02zm-.18 6.13l.07-.13.09.08s0 .08-.08.08-.05-.06-.08-.08zm-.2-7.15v-.13h.13zm-.6.61c.19-.06.4-.13.48.16 0 0-.06.1-.09.16zm.42-1l.07.17c-.09-.03-.22-.02-.07-.19zm-.58 16.61c.1 0 .25 0 .29.12.17.28-.13.36-.25.51-.01-.21-.03-.42-.04-.63zm-1-13.69c.36.12.62.28.13.64-.15.11-.34.32-.5.1-.34-.41.48-.37.35-.74zm0-.09c-.24-.19-.18-.45-.16-.7.31.16.15.44.09.69zm-.33-.81l.09-.08v.13zm-.28-2.2s0-.06.07-.08l.09.08-.08.09s-.14-.08-.15-.1zm-.59 3.1c.16-.09.4-.25.44-.21.24.23-.09.37-.14.56-.31-.01-.28-.24-.37-.37zm0 3.13s0 .08-.08.08-.06 0-.08-.07l.08-.08zm.37-2.57l-.06-.17c.05 0 .18-.01.02.15zm-.55 11.53c.22-.08.33-.16.42-.15s.22.1.23.17a.28.28 0 0 1-.17.22c-.11.01-.21-.09-.52-.26zm-.17-6s.07-.11.11-.12a.49.49 0 0 1 .18.06s-.07.12-.11.12a.51.51 0 0 1-.22-.12zm0-6.41c0-.07.17-.19.22-.17.32.1.2.32.14.52-.23-.16-.49-.15-.45-.41zm.32-1.22s-.08 0-.08-.08 0-.06.07-.08l.09.08zm-.56 3.52s0-.06.07-.08l.09.08-.08.09s-.16-.12-.17-.14zm-2.14 12v-.13l.13.05zm-.23-.23l.08-.09v.13zm-1.74-7.59l.1-.18c0 .06.1.11.1.17s-.05.12-.09.18zM58 23.59s0 .06-.08.09-.1-.1-.11-.16.07-.09.11-.14a1.24 1.24 0 0 1 .08.21zm-.1 1.19c-.12 0-.25.22-.33-.08a2 2 0 0 1 .31-.56c.15-.14.26.08.32.18.2.3-.06.38-.28.46zm.9.32a2.44 2.44 0 0 1-.3-.2c.13-.09.21-.16.24-.15a.41.41 0 0 1 .22.18c.04.08.04.25-.14.16zm-.22 1.11l-.26-.34c-.13-.17-.44-.37-.17-.57s.35.27.56.39c.53.27.29.43-.11.51zm.42 4.18a13.67 13.67 0 0 1 1.21-1.72c.18-.21.62-.28.67.25a5.15 5.15 0 0 1-1.65 1.77c-.23.01-.23-.18-.23-.3zm.53-3.38l.08-.09s.08 0 .08.08a.11.11 0 0 1-.07.08s-.06-.07-.09-.07zm.08 1.11s.08 0 .08.08a.11.11 0 0 1-.07.08s-.06 0-.09-.07zm-.38-3.85l-.05.13-.08-.09zm.09-1.26c.33-.39 0-.92.4-1.17.17-.1.33.15.45.31.58.78.46 1.87.94 2.59.71 1.09.07 2.13.3 3.16a.25.25 0 0 1-.22.34c-.23 0-.19-.19-.26-.32a3.81 3.81 0 0 1-.37-2.28c.27-1.33-.46-1.33-1.26-1.46 0-.31.28-.41.54-.51s.31-.25.29-.32a.44.44 0 0 0-.44-.33c-.15.05-.56.24-.37-.01zm-.59-6.85a.1.1 0 0 1-.07.08s-.06 0-.08-.07l.08-.09s.06.09.06.12zm.25-.72s0 .08-.08.08-.06 0-.08-.07l.08-.08zm.23 1.37l-.13.2a.18.18 0 0 1 .12-.17zm.24-.15l-.17.07c0-.07-.01-.19.16-.04zm0-.49l-.08.09s-.08 0-.08-.08 0-.06.07-.08zm.24 1.2l-.08.08s-.08 0-.08-.08 0-.06.07-.08zm.24 1.68l-.08.09s-.08 0-.08-.08 0-.06.07-.08zm.45-1.83c.06.15.18.31-.08.4-.06 0-.17-.12-.25-.19zm0 1.25c.06 0 .13.05.2.08l-.22.16-.23-.11a.93.93 0 0 1 .23-.1zm.54-1.43c-.1.29-.29.22-.48.15l.4-.31c.01.13.07.13.06.19zm.18 2.06h-.13l.03-.09zm.28-1.74a.11.11 0 0 1-.07.08s-.06 0-.09-.07l.08-.09s.06.09.06.12zm.07-1.35l.08-.09s.08 0 .08.08a.11.11 0 0 1-.07.08s-.06-.07-.09-.07zm.08.88s.08 0 .08.08a.1.1 0 0 1-.07.08s-.06 0-.08-.07zm.08-2.32l-.08.09s-.08 0-.08-.08 0-.06.07-.08zm.32 4.6h-.36v-.16zm0 .35c0 .09 0 .22-.17.07zm.42-.11l-.37.06.05-.28zm-.15-.71a1.09 1.09 0 0 1 .15-.37s.15 0 .24.07a1.61 1.61 0 0 1-.23.43c-.23.11-.22-.14-.21-.18zm.39-3.17c-.06 0-.11.09-.17.1s-.12-.05-.18-.09.12-.1.17-.1.07.01.13.04zm0 .48s0 .08-.08.08-.06 0-.08-.07l.08-.09zm.33 5.15a1 1 0 0 1 0 .9c-.08.14-.84.12-.71-.14.28-.6 0-.47-.36-.51s-.4.3-.54.51c.37.07 0 .66.46.66.12 0 .28-.25.33 0 0 .11-.11.3-.23.38-.4.29-.56-.12-.76-.31-.53-.5-.81-1.27-1.6-1.48a.45.45 0 0 1 .37-.42c.29-.35.73-.61.67-1.16 0-.13-.34-.15-.16-.29s.36 0 .55 0c.41.25.39 1.25 1.34.67.2-.22.27.75.62 1.14zm1.2-5.74c-.19-1.36.29-.18.45-.14s.37-.14.46-.33h.22c-.19.72-.86 1.52.34 2a1.58 1.58 0 0 1 .33 1.63c-.86-.16-.86-.17-.72-.9 0-.09 0-.27-.09-.28-1-.1-.72-1.81-2-1.53-.23 0-.3-.31-.19-.44s.24.28.36.18c.25-.29.87.12.82-.25zM64 12.6l-.08.08s-.08 0-.08-.08 0-.06.07-.08zm.6-.32v.16l-.35-.12zm.22 1.73l-.16.16c-.35.35-.74.39-1-.05a.72.72 0 0 1 .39-1c.5-.18.41.37.52.66.05.1.16.16.25.23zm.38-.45c0 .16-.23.29-.35.42a2.58 2.58 0 0 1-.07-.53 4.63 4.63 0 0 1 .12-.66c.11 0 .3 0 .3.08a1.68 1.68 0 0 1 0 .68zm0 1.1l-.21.21-.44-.1a1.42 1.42 0 0 1 .23-.27c.22-.15.39-.11.45.15zm.18.15l-.15.06v-.18zm0 1.13v.13l-.05-.06zm.26-.45s0 .06-.07.09l-.09-.08s0-.08.08-.08a.11.11 0 0 1 .12.06zm.92-1.71a15 15 0 0 1 .09 1.9c0 .92 0 .91-.77.93-.12 0-.24.15-.36.25l-.06-.74c1.75.07-.08-1.36.68-1.73 0 0 .35-.28 0-.44-.15-.07-.61.07-.26-.35.12-.15.29-.34.45-.35.47-.03.26.37.28.52zm.08-3.67a.92.92 0 0 1 .18-.23h.2l-.22.32zm-1-1.63c.1-.48 0-1.34.15-1.3.68.14.33.84.35 1.3s.22 1.28-.14 1.23c-.6-.07-.11-.84-.3-1.24zm-.94-.81c.11-.35-.17-.79.15-1.15a3.19 3.19 0 0 1 .32 1.1c0 .48.36 1-.05 1.44a.31.31 0 0 1-.31 0c-.35-.44.02-.92-.05-1.4zm-.89-1c-.21 0-.3-.11-.29-.28s-.17-.65.19-.83c.16-.08.28.1.27.27s.2.63-.11.85zm-.81.8c0-.21.32-.52.74-.5s.27.46.29.73 0 .56-.35.4-.63-.39-.68-.63zm-3.47-1.82l.08-.09s.08 0 .08.08a.11.11 0 0 1-.07.08s-.06-.05-.09-.07zm-.68-2.33a6.79 6.79 0 0 0 1.46.3c.86.16 2 .11 2.27 1.22a10.14 10.14 0 0 1 0 2.26c0 .35-.07.53-.46.34-.58-.27-1.24-.53-.35-1.18.42-.31.35-.4.06-.79s-.43-.85-1.1-1.08a4.83 4.83 0 0 0-1.71-.59c-.29.02-.25-.25-.18-.48zm-1.49 0c.46-.55.94-.64 1.44 0zm.25 1.35l.07-.08s.08 0 .08.08a.1.1 0 0 1-.07.08s-.05-.04-.08-.06zm-3.67-1.83c-.22 0-.26-.27 0-.41a3.82 3.82 0 0 1 3.36.9c0 .1-.12.29-.13.29a26.26 26.26 0 0 0-3.23-.78zm-.36.45c.08-.07.13-.16.17-.15a1.6 1.6 0 0 1 .32.07s-.09.12-.14.13a1.89 1.89 0 0 1-.35-.04zm-.48-.51s.07-.12.11-.12a.52.52 0 0 1 .19.06s-.07.12-.11.12a.49.49 0 0 1-.18-.05zm-18.5 9.83c.06 0 .11-.1.17-.1s.12.05.18.09l-.17.11zm-.64.29h-.13l.05-.13zm-.32.15h.13v.13zm-1.15.34c0-.32.36-.13.54-.25s.29.07.29.24-.16.32-.39.3-.44-.13-.44-.3zm-2 .53c0-.1.06-.22.19-.11a1.3 1.3 0 0 1 .18.26l-.24.09c-.05-.08-.14-.15-.14-.24zm20.64 26.09s0-.06.07-.08l.09.08-.08.09s-.07-.09-.08-.09zm-1.21-5h.17l-.05.35zm-2.16.92l.08-.09s.08 0 .08.08a.11.11 0 0 1-.07.08s-.05-.09-.08-.11zm-.26-.6l.1-.18c0 .06.1.11.1.17s-.05.12-.09.18zm-1.71 0c0-.14 0-.4.23-.43s.25.23.26.41 0 .43-.22.45-.22-.28-.26-.48zm-17-7.45a.52.52 0 0 1 .43-.44c.07.3-.1.43-.42.39zm0-3.56l-.05.13-.08-.09zm.19-.11h-.13v-.13zm.46 3.13h-.13l.05-.13zm.44-1.33s-.07.11-.11.12a.49.49 0 0 1-.18-.06s.07-.12.11-.12a.51.51 0 0 1 .18.06zm.29-1.66s0 .08-.08.08-.06 0-.08-.07l.08-.08zm.67.27a1.25 1.25 0 0 1-.22.07s-.06 0-.09-.08.1-.1.16-.11.1.08.15.12zm.53.21l-.08.09s-.08 0-.08-.08 0-.06.07-.08zm1.41.11a1.09 1.09 0 0 1-.37-.15s0-.15.07-.24a1.61 1.61 0 0 1 .43.23c.16.23-.1.17-.14.17zm4.59 7c0 .07-.14.17-.22.17s-.2-.07-.41-.15c.29-.16.39-.26.46-.24a.28.28 0 0 1 .16.23zm1.76-4.93l.08-.09s.08 0 .08.08a.1.1 0 0 1-.07.08s-.06-.07-.09-.07zm-1.45 5.64a.86.86 0 0 1 .48.46c.36.08.79.09.88.55 0 .19-.18 0-.26 0a1 1 0 0 1-1.21-.37c-.11-.08.04-.4.1-.64zm-2.41-.46a.53.53 0 0 1 .44.44q-.51.06-.45-.44zm-8.2-2.82c0-.37.23-1 .79-1 .41 0 .56-.43.91-.48.17.31.4.68.73.66 1.5-.12 2.41 1.32 3.91 1.33.79 0 1.54.67 2.29 1.1s1 1.53 2 1.68c-.62.54-1.24.78-1.89 0 .35-.16.49-.35.11-.7s-.48 0-.62.19c-.57-.46-1.14-.91-1.94-.55-.18.08-.26-.08-.37-.13-1.61-.75-3.07-1.9-5-1.93-.33-.03-.99.13-.93-.17zM26 49.01c0-.07.18-.11.28-.16.07.31.41.55.24.91-.16-.28-.52-.37-.52-.75zm-.56-.56c.09-.23.21-.38.41-.38a.3.3 0 0 1 .22.18c.05.23-.14.36-.3.43s-.2-.19-.31-.27zm-1.18-9.72a2.57 2.57 0 0 1 .22-1.78c.07.06.18.1.21.18.36.62 0 1.1-.41 1.56zm-1.69-11.6c-.09 0-.25 0-.19-.14a3.09 3.09 0 0 1 .24-.46 1 1 0 0 1 .12.25c.04.1.04.23-.15.31zm.61.48c-.08 0-.14-.13-.2-.2l.15-.17c.08.07.2.13.23.23s-.08.13-.16.1zM23 29.08c.66.32-.13-.89.52-.55.19.1.43.28.38.54a.61.61 0 0 1-.35.41c-.26.07-.43-.13-.55-.4zm-.25-.25a.18.18 0 0 1 .25.18.19.19 0 0 1-.21-.18zm.15 1.07q0 .17-.08.33v-.33zm-.5.54v-.17l.34.05zm.15-1.72l.09-.08v.13zm-.26-.71c0-.16 0-.33.22-.34a.45.45 0 0 1 .45.33c.1.3-.06.26-.3.22s-.39.09-.37-.21zm-.29-.77s0 .08-.08.08-.06 0-.08-.07 0-.08.08-.08.08.04.08.07zm-.08 1.36s.08 0 .08.08a.11.11 0 0 1-.07.08s-.06 0-.09-.07zm-.1.69l.1-.18c0 .06.1.11.1.17s-.05.12-.09.18zm-.49-2.93c-.43 0-.18-.31-.09-.53s-.41-.51.11-.58a.29.29 0 0 1 .3.45c-.13.22.09.67-.32.66zm.19.88s0 .08-.08.08-.06 0-.08-.07l.08-.09zm-.1 1.77l-.07-.17c.1-.01.23-.02.07.17zm-.59 5c.05-.73 0-1.47 0-2.21 0-.13.11-.38.16-.38.23 0 .11.22.13.35a9.11 9.11 0 0 1-.95 5.45c-.06.13 0 .33-.21.37s-.25-.24-.37-.37a1 1 0 0 1-.15-.78 2.86 2.86 0 0 0 1.39-2.43zm-.46-3.66c0-.06 0-.25.14-.32a.2.2 0 0 1 .31.18.55.55 0 0 1-.12.41c-.13.14-.27.04-.33-.23zm0-11.16a1.56 1.56 0 0 1-.21.36A5.33 5.33 0 0 0 19 25.8c.44 1.07 1.08 2.06 1.42 3.18.06.19.22.39 0 .5s-.28-.17-.38-.33c-.24-.36-.33-.77-.56-1.15a9.75 9.75 0 0 1-1.26-6.56 2.2 2.2 0 0 1 2.1-2.21zm-.56 2.89l.09.08s0 .08-.08.08-.06 0-.08-.07zm.42-.33c-.27.06-.28-.18-.3-.37s0-.43.19-.49.29.18.29.37.01.48-.23.53zm.36-2.68l-.17.06c-.03-.04-.04-.17.13-.02zm0 8c-.71-.59-.59-1.52-.89-2.28a3.53 3.53 0 0 1 0-1.29 2.08 2.08 0 0 1 .45 1.11 5.81 5.81 0 0 1 .44 2.47zm.21.49c-.23-.06-.19-.26-.18-.43.17 0 .37-.05.43.18a.2.2 0 0 1-.25.26zm.29.55c.39.11.21.41.22.64-.29-.07-.47-.23-.41-.55.01-.03.1-.1.19-.08zm-.92-11.43l.07-.08.08.07s0 .08-.08.08-.04-.04-.07-.06z"/><path d="M50 17.28c-.27-.82-.53-1.64-.77-2.47 0-.08.1-.1.17 0a9.54 9.54 0 0 1 1.18 2.77 1.12 1.12 0 0 1 0 .2c-.16.13.2.61-.2.61s0-.4-.12-.59a2.81 2.81 0 0 1-.26-.52zM79.53 30.75q1 .27 2 .58a.61.61 0 0 1-.05.32c-.28.47-.61.09-.91 0a1.71 1.71 0 0 1-1.22-.76c-.07-.2.12-.16.18-.14zM58.29 17.06zM59 18.01c-.13.38-.41.58-.79.41s-.36-.73-.55-1.08.37-.23.64-.28c.17.36.17.85.7.95zM27.18 15.35a3.49 3.49 0 0 1-.46-.06c0-.15.13-.43.14-.43.72.2 1-.87 1.76-.57-.54.26-.69 1.07-1.44 1.06zM29.09 17.35c0 .13 0 .3-.1.38-.37.37-1 .44-1.27.9l-.37-.25a1.23 1.23 0 0 1 .06-.25c.63 0 .94-.47 1.35-.82.06-.04.24.03.33.04zM53.1 29.77a1.83 1.83 0 0 1 1.15-.15c.42.54-.5.35-.5.74a.32.32 0 0 1-.08.16c-.42-.09-.83-.36-.57-.75zM53.67 30.52zM49.83 28.1c.06.06-.08.23-.22.18a1.24 1.24 0 0 1-.66-.63c.06-.07 0-.3.2-.14a5.47 5.47 0 0 1 .68.59zM55.1 21.67c.14-.12.61-.11.66 0 .16.31-.49.19-.38.57 0 .05 0 .13-.06.19-.07-.28-.6-.42-.22-.76zM55.33 22.42zM55.55 17.82c0-.07.24-.19.25-.17a6.34 6.34 0 0 1 .52.64 2.21 2.21 0 0 1-.22.2c-.24-.22-.58-.3-.55-.67zM65.33 39.18c.07 0 .13.19.13.3s0 .35-.24.31-.2-.21-.19-.37.14-.29.3-.24zM80.65 28.79c0-.17.17-.21.32-.2s.28.06.3.13 0 .3-.24.3-.32-.01-.38-.23zM48 29.01zM47.5 29.01c0-.32-.12-.73.45-.68v.68zM48 28.34zM47.48 29.01zM64.59 39.74c.18-.09.15.1.16.18s0 .33-.19.35-.17-.09-.32-.18c.14-.15.22-.29.35-.35zM52.5 28.01c.1 0 .28-.08.22.11-.11.37-.43.18-.67.2-.05-.37.18-.36.45-.31zM52.06 28.34s-.01-.01 0 0zM66.27 38.38c.28-.09.15.18.15.27s.1.32-.21.36c-.05-.07-.2-.17-.18-.25s.13-.34.24-.38zM27.67 17.77c-.12-.07-.27-.11-.29-.18s.07-.29.25-.28a1.71 1.71 0 0 1 .33.08zM56.75 16.93a.59.59 0 0 1-.32-.24c-.12-.29.09-.29.29-.26.01.17.21.34.03.5zM57 18.32c0-.1.14-.17.21-.25l.3.3-.27.1c-.15-.02-.31.02-.24-.15zM64.67 36.22c-.13-.27.15-.34.26-.5v.61c-.08-.04-.22-.05-.26-.11zM64.93 35.67zM62.78 11.39s-.13.09-.19.09a3.26 3.26 0 0 1-.51-.16l.61-.23a1.3 1.3 0 0 1 .09.3zM46.55 28.82zM46.92 29.6l-.35-.75c.67-.03.43.42.35.75zM46.93 29.62zM54.89 27.6c0 .11-.11.13-.15 0a.38.38 0 0 1 0-.22c0-.05.07-.09.14-.17a1.46 1.46 0 0 1 .01.39zM55.52 27.09c-.08.07-.17.12-.26.18l-.07-.26a1.06 1.06 0 0 1 .29-.09c.11.01.13.09.04.17zM55.19 20.28l.07-.26.26.17c.1.07.08.15 0 .16a1.05 1.05 0 0 1-.33-.07zM55.71 26.01c.16-.22.34 0 .52 0l-.49.21c-.01-.03-.06-.13-.03-.21zM49 23.3a1.06 1.06 0 0 1 .09.29c0 .12-.08.14-.16 0s-.12-.17-.18-.26zM62 12.92l.1.51h-.2zM62.11 13.43zM60.3 11.93zM59.79 11.85v-.21l.44.31c-.15.06-.32.06-.44-.1zM56.72 15.9c.22.16 0 .34 0 .52l-.21-.49c.07-.01.17-.05.21-.03zM49.43 38.39zM49.31 38.01l.07.38-.38-.09zM27.93 16.74a2.44 2.44 0 0 1-.25.24l-.1-.25a2.25 2.25 0 0 1 .27-.13s.09.12.08.14zM58.27 20.91v.42c-.27-.14-.27-.32 0-.42zM48.37 5.21c0 .11 0 .23-.07.34v-.37zM48.28 5.61zM51.84 4.54zM52.27 4.34v.21h-.43c.06-.24.25-.21.43-.21zM48.4 6.64a1 1 0 0 1 0 .19l-.13-.08.08-.18s.05.05.05.07zM53.54 29.36a.12.12 0 0 1 0-.1.66.66 0 0 1 .12-.11.54.54 0 0 1 0 .2c-.01.11-.07.11-.12.01zM63.89 10.75a.13.13 0 0 1-.1 0 .66.66 0 0 1-.11-.12.54.54 0 0 1 .2 0c.12.01.12.07.01.12zM56.32 28.87c0 .11-.09.11-.14 0a.12.12 0 0 1 0-.1.65.65 0 0 1 .12-.11.54.54 0 0 1 .02.21zM57.42 15.71s.11.08.1.12-.06.1-.09.15a1.22 1.22 0 0 1-.07-.19s.04-.05.06-.08zM26.4 15.82a.66.66 0 0 1 .12-.11.54.54 0 0 1 0 .2c0 .11-.09.11-.14 0a.13.13 0 0 1 .02-.09zM29.62 17.14s.07.06.07.08a1.07 1.07 0 0 1-.06.19l-.13-.1zM48.94 26.84c-.05 0-.1-.06-.15-.09a1.21 1.21 0 0 1 .19-.07s.05 0 .08.06-.06.1-.12.1zM49.25 30.63zM49.22 31.01v-.37l.07.35zM63.52 40.87c0 .11-.09.11-.15 0a.13.13 0 0 1 0-.1.66.66 0 0 1 .12-.11.54.54 0 0 1 .03.21zM46.43 28.7v.08s.01-.06 0-.08zM46.55 28.82v-.07zM65.3 36.61s0-.05.06-.08l.08.07-.07.08s-.07-.05-.07-.07zM27.86 15.81zM28 15.64a.14.14 0 0 1-.13.17.15.15 0 0 1 .13-.17zM28 15.62zM35.82 36.11v-.08.08zM35.71 36.01v.07zM28 15.62h.07zM28.15 15.51h-.08.08zM31.78 15.46h.08s-.05-.01-.08 0zM31.9 15.34h-.07zM59.11 14.55h-.08.08zM63.82 36.01h-.07zM63.71 36.1h.08s-.06-.01-.08 0zM61.14 14.91v-.05zM60.91 15.11h.05v.06zM61 15.09a.22.22 0 0 1 .18-.18.21.21 0 0 1-.18.18zM48.58 30.82h.08s-.05-.01-.08 0zM50.56 3.48l-.07.08s-.07 0-.07-.07 0-.05.06-.08zM52.37 4.72l-.06-.14h.17zM52.32 4.58zM53.75 32.18v-.07zM53.64 32.06v0zM55.27 33.01h-.08.08zM55.16 33.14h.07zM58.72 6.36s0 .07-.07.07-.05 0-.08-.06l.07-.08zM59.44 6.6a.09.09 0 0 1-.06.07s-.05 0-.08-.06l.07-.08s.06.04.07.07zM62.18 9.01l.07-.08s.07 0 .07.07a.09.09 0 0 1-.06.07s-.06-.06-.08-.06zM51 9.24s0 .05-.06.08l-.08-.07s0-.07.07-.07a.09.09 0 0 1 .07.06zM63.27 9.96l-.06.07-.07-.02s0-.07.06-.07a.09.09 0 0 1 .07.02zM61.07 10.7v.08s.01-.06 0-.08zM61.19 10.82v-.07zM64.19 11.66v.08s.01-.06 0-.08zM64.31 11.78v-.07zM48 28.3zM48.05 28.17l.11.14H48zM48.17 28.3h.06zM54.57 19.49l.08.14c-.08.01-.19.03-.08-.14zM54.65 19.64zM54.78 19.79v-.08.08zM54.67 19.67v.07zM57.28 26.76s0 .07-.07.07-.05 0-.08-.06l.07-.08zM56.08 20.76a.09.09 0 0 1-.06.07s-.05 0-.08-.06l.07-.08s.06.04.07.07zM27.7 15.94h.08s-.05-.01-.08 0zM27.82 15.82h-.07zM56.08 28.2a.09.09 0 0 1-.06.07s-.05 0-.08-.06l.07-.08s.06.04.07.07zM26.66 16.45l.06-.08.08.06-.06.08s-.07-.04-.08-.06zM23.54 16.45l.06-.08.08.06-.06.08s-.07-.04-.08-.06zM49.59 30.36a.09.09 0 0 1-.06.07s-.05 0-.08-.06l.06-.08s.08.04.08.07zM50 27.01v-.08.08zM54.56 17.33s.07 0 .07.07a.09.09 0 0 1-.06.07s-.05 0-.08-.06zM72.64 23.4s0 .07-.07.07-.05 0-.08-.06l.07-.08zM61.62 20.84a3.79 3.79 0 0 1-.42-.3c0-.15 0-.33.14-.25a1.29 1.29 0 0 1 .42.39c.14.19-.11.18-.14.16zM59.94 20.73h-.08.06zM60.28 20.8l-.34-.07h.37zM60.71 21.63l.12-.16s.07.06.07.08a1.07 1.07 0 0 1-.06.19zM62.09 4.81v.09h-.14l.05-.24a.9.9 0 0 1 .09.15zM74.66 22.85c.27.09.66.36.5.63-.31.55-.71.18-1.07 0 .07-.34 0-.82.57-.63zM74.09 23.46zM38 33.22h.08s-.08-.01-.08 0zM38.14 33.1h-.07z"/></svg>