<svg data-name="Layer 1" xmlns="http://www.w3.org/2000/svg" viewBox="0 0 11.14 9.43"><path d="M11.14 1.29v3.42A.41.41 0 0 1 11 5a.42.42 0 0 1-.27.14L3.77 6a4.15 4.15 0 0 1 .09.47 1.29 1.29 0 0 1-.16.43h6.16a.43.43 0 0 1 0 .86H3a.43.43 0 0 1-.43-.43.63.63 0 0 1 .05-.21 2.59 2.59 0 0 1 .11-.24l.14-.27.1-.2L1.79.86H.43a.41.41 0 0 1-.3-.13.41.41 0 0 1-.13-.3.41.41 0 0 1 .13-.3.41.41 0 0 1 .3-.13h1.71a.42.42 0 0 1 .19 0 .39.39 0 0 1 .13.1.68.68 0 0 1 .09.16 1.06 1.06 0 0 1 .05.23v.37h8a.43.43 0 0 1 .43.43zM4 8a.86.86 0 0 1-.6 1.46A.86.86 0 1 1 4 8zm6 0a.84.84 0 1 1-.6-.25.82.82 0 0 1 .6.25z"/></svg>