<svg data-name="Layer 1" xmlns="http://www.w3.org/2000/svg" viewBox="0 0 348.58 21.6"><title>logo</title><path d="M16.05 20.14v.71H0v-.71h1a11.52 11.52 0 0 0 1.7-.1 1.83 1.83 0 0 0 1.61-1.37 9.11 9.11 0 0 0 .16-1.91V4.65a9.2 9.2 0 0 0-.16-1.93 1.81 1.81 0 0 0-1.64-1.35A11.52 11.52 0 0 0 1 1.27H0V.56h16.05v.71h-1a4.74 4.74 0 0 0-2.73.53 2.17 2.17 0 0 0-.68 1.5 11.83 11.83 0 0 0-.05 1.34v12.12a8.91 8.91 0 0 0 .16 1.91A1.83 1.83 0 0 0 13.38 20a11.51 11.51 0 0 0 1.7.1zM9.38 2.23a2.72 2.72 0 0 1 .51-1H4.2a2.81 2.81 0 0 1 .75 1zm0 16.94H4.95a2.89 2.89 0 0 1-.75 1h5.68a3 3 0 0 1-.5-1zM9.3 2.73H5.11a8.53 8.53 0 0 1 .14 1.33h4v-.35q.03-.71.05-.98zm0 14.62h-4a7.63 7.63 0 0 1-.14 1.31H9.3v-1zm0-12.78h-4v1.31h4zm0 1.82h-4v1.32h4zm0 1.83h-4v1.31h4zm0 1.82h-4v1.33h4zm0 1.83h-4v1.31h4zm0 1.83h-4V15h4zm0 1.82h-4v1.33h4zM21.6.56h16.91a36.39 36.39 0 0 1 4.07.14 6.34 6.34 0 0 1 4 2 4.77 4.77 0 0 1 1.13 3.19 4.81 4.81 0 0 1-1.59 3.69 7.42 7.42 0 0 1-3.92 1.68l3.51 6.56a4.34 4.34 0 0 0 2.08 2 5.75 5.75 0 0 0 2 .33v.71h-9.65l-5.29-9.58h-1.64v5.5a8.91 8.91 0 0 0 .16 1.91A1.83 1.83 0 0 0 35 20a11.51 11.51 0 0 0 1.7.1h.16v.71H21.6v-.71h1a11.52 11.52 0 0 0 1.7-.1 1.83 1.83 0 0 0 1.61-1.37 9.11 9.11 0 0 0 .09-1.87V4.65a9.2 9.2 0 0 0-.16-1.93 1.81 1.81 0 0 0-1.61-1.35 11.52 11.52 0 0 0-1.7-.1h-1zm9.28 1.67v-1h-5.09a2.81 2.81 0 0 1 .75 1zM31 19.17h-4.45a2.89 2.89 0 0 1-.75 1h5.69a3 3 0 0 1-.49-1zm-.1-16.43h-4.19a8.53 8.53 0 0 1 .14 1.33h4zm0 14.62h-4a7.63 7.63 0 0 1-.14 1.31h4.18v-1zm0-12.78h-4v1.3h4zm0 1.82h-4v1.31h4zm0 1.83h-4v1.3h4zm0 1.82h-4v1.33h4zm0 1.83h-4v1.31h4zm0 1.83h-4V15h4zm0 1.82h-4v1.33h4zm2.32-5h1.9a5.29 5.29 0 0 0 3.46-1 3.49 3.49 0 0 0 1-1.64 6.19 6.19 0 0 0 .31-2 4.52 4.52 0 0 0-1.57-3.81 4.25 4.25 0 0 0-2.15-.82 12.36 12.36 0 0 0-1.35-.07h-1.61zm9.25-.53h-3.25a5.89 5.89 0 0 1-3.5 1.23l.05.1h3.9a28.74 28.74 0 0 0 2.8-1.33zm-2.53 1.83h-3.88l.71 1.31h3.88zm1 1.83h-3.88l.73 1.34h3.84zm1 1.82h-3.88l.72 1.33h3.82zm1.19-13.25a5.46 5.46 0 0 0-1.5-.71 16.44 16.44 0 0 0-3.42-.25 6.83 6.83 0 0 1 1.19 1zm-.26 15.12h-3.81l.72 1.31h3.79zm1.61-9.13h-4.11a4.94 4.94 0 0 1-.68 1.31h3.55a5.4 5.4 0 0 0 1.24-1.31zm-.74-5.48h-3.93a6.68 6.68 0 0 1 .66 1.33h4.21a4.71 4.71 0 0 0-.93-1.34zm.1 16.43h-3.77l.52 1h3.76zm1.22-12.79h-4.34a8.28 8.28 0 0 1-.21 1.33h4.24a5.32 5.32 0 0 0 .31-1.33zm-.19-1.82H40.6a6.58 6.58 0 0 1 .14 1.31h4.35a5.23 5.23 0 0 0-.22-1.3zM85.14 13l2.41-5.21a6.16 6.16 0 0 0 .66-2.53 3.93 3.93 0 0 0-1.9-3.42 3.93 3.93 0 0 0-1.71-.6V.56h10.66v.71q-3.88.1-6.55 6L82.15 21.6h-.53L73.71 6.26 66.6 21.6h-.53L57.66 5.29q-.81-1.56-1.11-2a4.06 4.06 0 0 0-2.46-1.85 6 6 0 0 0-1.41-.14h-.6V.56H67v.71h-.68a3.09 3.09 0 0 0-1.63.3.69.69 0 0 0-.33.63 2.71 2.71 0 0 0 .36 1.18L69.61 13l3.6-7.74a21.14 21.14 0 0 0-1.11-2 4.2 4.2 0 0 0-2.5-1.83 7.16 7.16 0 0 0-1-.15V.56h13.9v.71h-.7a3 3 0 0 0-1.61.3.69.69 0 0 0-.33.63 2.71 2.71 0 0 0 .36 1.18zM61.76 2.23a2.71 2.71 0 0 1 .33-1h-6.7a6.26 6.26 0 0 1 1.2 1zm0 .51H57a9.49 9.49 0 0 1 .64 1.07l.12.26h4.51L62 3.58a2.87 2.87 0 0 1-.24-.85zm.77 1.83H58l.68 1.31h4.5zm.93 1.82H59l.67 1.33h4.48zm.93 1.83H59.9l.68 1.31h4.47zm.93 1.78h-4.47l.68 1.33H66zm.94 1.83h-4.47l.68 1.31h4.46zm.93 1.83h-4.46l.69 1.34h4.43zm.92 1.82h-4.43l.68 1.33h3.55l.41-.9zm-.42 1.83h-3.07l.68 1.31h1.78zm-.83 1.82h-1.3l.68 1.33zm10.45-16.9a2.71 2.71 0 0 1 .33-1h-6.7a7.46 7.46 0 0 1 1.22 1zm0 .51h-4.77a8.94 8.94 0 0 1 .64 1.07l.14.26h4.5l-.23-.48a2.87 2.87 0 0 1-.28-.86zm.77 1.83h-4.5l.67 1.31h4.5zM79 6.38h-4.48l.67 1.33h4.5zm.93 1.83h-4.47l.67 1.31h4.48zm.93 1.79h-4.47l.68 1.33h4.46zm.93 1.83h-4.46l.67 1.35h4.44zm.93 1.83h-4.44L79 15h4.43zm.93 1.82h-4.43l.68 1.33h3.55l.4-.9zm-.42 1.83h-3.07l.68 1.31h1.78zm-.83 1.82h-1.29l.68 1.33zm8.07-16.9l.19-.23.26-.34.29-.37h-4.57a12.34 12.34 0 0 1 1.07 1zm-.36.51h-2a4.39 4.39 0 0 1 .78 2.09 19.29 19.29 0 0 1 1.23-2.1zM114.42 20.14v.71H98.37v-.71h1A11.52 11.52 0 0 0 101 20a1.83 1.83 0 0 0 1.61-1.37 9.11 9.11 0 0 0 .16-1.91V4.65a9.2 9.2 0 0 0-.16-1.93A1.81 1.81 0 0 0 101 1.37a11.52 11.52 0 0 0-1.7-.1h-1V.56h16.05v.71h-1a4.74 4.74 0 0 0-2.73.53 2.17 2.17 0 0 0-.68 1.5 11.83 11.83 0 0 0 .06 1.35v12.11a8.91 8.91 0 0 0 .16 1.91 1.83 1.83 0 0 0 1.6 1.33 11.51 11.51 0 0 0 1.7.1zm-6.67-17.91a2.72 2.72 0 0 1 .51-1h-5.69a2.81 2.81 0 0 1 .75 1zm0 16.94h-4.43a2.89 2.89 0 0 1-.75 1h5.69a3 3 0 0 1-.51-1zm-.08-16.43h-4.18a8.53 8.53 0 0 1 .14 1.33h4v-.36q.02-.71.04-.98zm0 14.62h-4a7.63 7.63 0 0 1-.14 1.31h4.18v-1zm0-12.78h-4v1.3h4zm0 1.82h-4v1.31h4zm0 1.83h-4v1.3h4zm0 1.82h-4v1.33h4zm0 1.83h-4v1.31h4zm0 1.83h-4V15h4zm0 1.82h-4v1.33h4zM131.84.56l12 11.14v-5q0-3.42-1.87-4.7a4.55 4.55 0 0 0-2.64-.77V.56h10.34v.71a5 5 0 0 0-3.19 1 4.54 4.54 0 0 0-1.38 2 7.49 7.49 0 0 0-.36 2.45v14.79h-.67L125.78 4.4v10.26a7.09 7.09 0 0 0 .67 3.36 4 4 0 0 0 2.35 1.9 4.84 4.84 0 0 0 1.5.22v.71H120v-.71a4.94 4.94 0 0 0 3.17-1 4.55 4.55 0 0 0 1.38-2 7.55 7.55 0 0 0 .36-2.46v-11l-.74-.68a9.69 9.69 0 0 0-1.59-1.12 4.1 4.1 0 0 0-1.31-.53 5.9 5.9 0 0 0-1-.08h-.12V.56zm-1.7 1.67l-1-1h-6.37a11.51 11.51 0 0 1 1.45 1zm-6.33 17.24a7.06 7.06 0 0 1-.87.67h3a3.71 3.71 0 0 1-.52-.67zm.46-.51h1a5.25 5.25 0 0 1-.26-1.19 4.4 4.4 0 0 1-.73 1.23zm6.41-16.23h-5.85l.66.57.81.75h5.8zm2 1.83h-5.8l1.42 1.31h5.8zm2 1.82h-5.78l1.42 1.33H136zm2 1.83h-5.77l1.41 1.31H138zm2 1.82h-5.77l1.42 1.33h5.77zm2 1.83h-5.78l1.42 1.31h5.77zm2 1.83h-5.77l1.16 1.31h5.77zm1.32 1.83h-5.4l1.4 1.32h4zm0 1.83h-3.45l1.45 1.31h2zm-1.12-15.42h1.65a3.94 3.94 0 0 1 .52-.66h-3a10 10 0 0 1 .83.66zM144 19.17h-1.48l1.48 1.39zm-.66-16.73a3.93 3.93 0 0 1 .66 1.05 6.32 6.32 0 0 1 .31-1.05zM191.83.56V7.9h-.66a24.77 24.77 0 0 0-4.73-4.84A7.52 7.52 0 0 0 183 1.39a10.6 10.6 0 0 0-1.72-.12h-3.19v8.57h.78a5.47 5.47 0 0 0 3.8-1.37 9.42 9.42 0 0 0 1.79-2.16h.74v7.79h-.74a7.41 7.41 0 0 0-1.91-2.2 6.56 6.56 0 0 0-2-1.12 5.33 5.33 0 0 0-1.7-.23h-.78v6.21a8.91 8.91 0 0 0 .16 1.91 1.83 1.83 0 0 0 1.68 1.33 11.51 11.51 0 0 0 1.7.1h1v.71h-16.08v-.71h1a11.52 11.52 0 0 0 1.7-.1 1.83 1.83 0 0 0 1.61-1.37 9.11 9.11 0 0 0 .16-1.91V4.65a9.2 9.2 0 0 0-.16-1.93 1.81 1.81 0 0 0-1.61-1.35 11.52 11.52 0 0 0-1.7-.1h-1V.56zm-16 1.67v-1h-5.09a2.81 2.81 0 0 1 .75 1zm.1 16.94h-4.43a2.89 2.89 0 0 1-.75 1h5.69a3 3 0 0 1-.53-1zm-.1-16.43h-4.17a8.53 8.53 0 0 1 .14 1.33h4zm0 14.62h-4a7.63 7.63 0 0 1-.14 1.31h4.18v-1zm0-12.78h-4v1.3h4zm0 1.82h-4v1.31h4zm0 1.83h-4v1.3h4zm0 1.82h-4v1.33h4zm0 1.83h-4v1.31h4zm0 1.83h-4V15h4zm0 1.82h-4v1.33h4zm5.62-5.07a7.55 7.55 0 0 1 2.14 1.54v-1.55zm.15-.51h2V8.44a6.54 6.54 0 0 1-2.02 1.5zm8.13-7.51V1.27h-4.87a17.5 17.5 0 0 1 1.79 1.16zm0 .51h-2.43a18.44 18.44 0 0 1 2.42 2.34zM209.26 15.22h-8.46a3.25 3.25 0 0 0-.19 1.08 3.91 3.91 0 0 0 1 2.6 3.09 3.09 0 0 0 1.42 1 9.46 9.46 0 0 0 2 .27v.71h-11.11v-.71q3-.11 5.93-5.22L208.29 0h.71l9.5 17a10 10 0 0 0 1.37 2 3.5 3.5 0 0 0 2.13 1.07 7.31 7.31 0 0 0 1.05.07h.42v.71h-16v-.71H209a2.16 2.16 0 0 0 1.44-.44 1.2 1.2 0 0 0 .48-1 2.36 2.36 0 0 0-.34-1.08zm-11.7 4a7.19 7.19 0 0 1-1.35 1h3.46a3.77 3.77 0 0 1-.46-1zm.52-.51h1v-.41q0-.1.08-.89a13.79 13.79 0 0 1-1.08 1.25zm10.72-4.16l-3.91-7.08-3.89 7.04zm1.71-6.79l-.75-1.33h-4.29l-.18.29.57 1zm-1-1.83l-.75-1.31h-2.21l-.77 1.31zm2.05 3.65l-.74-1.31h-4.65l.74 1.31zm-3.08-5.47l-.82-1.45-.83 1.45zm4.1 7.3l-.76-1.41h-4.66l.74 1.33zm1 1.82l-.75-1.31h-4.66l.72 1.31zm1 1.83l-.74-1.31h-4.69l.72 1.31zm1 1.83l-.74-1.33h-4.7l.72 1.33zm-4 2.32a1.87 1.87 0 0 1-.56 1h6.4l-.55-1zm5-.51l-.74-1.31h-4.72l.14.26a2.73 2.73 0 0 1 .36 1.05zM252.32 2.52l-9.58 18.33h-.57l-10-16.37v10.18a7.09 7.09 0 0 0 .67 3.36 4 4 0 0 0 2.35 1.9 4.84 4.84 0 0 0 1.5.22v.71h-10.33v-.71a4.94 4.94 0 0 0 3.17-1 4.55 4.55 0 0 0 1.38-2 7.55 7.55 0 0 0 .36-2.46V3a4.31 4.31 0 0 0-4-1.76h-.83V.56h11.79l7.66 12.65L252.45.56h11.48v.71h-1a9.76 9.76 0 0 0-1.76.12 2.36 2.36 0 0 0-1 .42 2.17 2.17 0 0 0-.68 1.5 11.83 11.83 0 0 0-.05 1.34v12.11a8.91 8.91 0 0 0 .16 1.91 1.83 1.83 0 0 0 1.67 1.33 10.07 10.07 0 0 0 1.7.11h1v.71h-16.09v-.71h1a10.08 10.08 0 0 0 1.7-.11 1.81 1.81 0 0 0 1.61-1.35 9 9 0 0 0 .16-1.91zm-22.12 17a7.06 7.06 0 0 1-.87.67h3a3.71 3.71 0 0 1-.52-.67zm6-17.24l-.59-1h-5.28a4.44 4.44 0 0 1 1.26 1zM230.67 19h1a5.25 5.25 0 0 1-.26-1.19 4.4 4.4 0 0 1-.74 1.19zm5.84-16.23H232q.22.33.67 1.07l.16.26h4.47zm1.11 1.83h-4.47l.81 1.31h4.47zm1.11 1.82h-4.46l.79 1.33h4.47zm1.11 1.83h-4.46l.79 1.31h4.47zm1.1 1.75h-4.46l.79 1.33h4.47zm1.06 1.87h-4.46l.79 1.31h4.47zm1.11 1.83h-4.46l.79 1.31H244zm1.11 1.82h-4.42l.79 1.33H244l.48-.9zm-.48 1.83h-2.87l.79 1.31h1.38zm-1 1.82H242l.42.71zm14.44 0h-4.43a3 3 0 0 1-.75 1h5.69a3 3 0 0 1-.43-1zm-.1-1.82h-4a7.63 7.63 0 0 1-.14 1.31h4.18v-1zm.1-15.12a3 3 0 0 1 .51-1h-4.63v1zm-.08.51h-4v1.32h4v-.35q.06-.71.08-.98zm0 1.83h-4v1.31h4zm0 1.82h-4v1.32h4zm0 1.83h-4v1.31h4zm0 1.82h-4v1.33h4zm0 1.83h-4v1.31h4zm0 1.83h-4V15h4zm0 1.82h-4v1.33h4zM285.53 20.14v.71h-16.05v-.71h1a11.52 11.52 0 0 0 1.7-.1 1.83 1.83 0 0 0 1.61-1.37 9.11 9.11 0 0 0 .16-1.91V4.65a9.2 9.2 0 0 0-.16-1.93 1.81 1.81 0 0 0-1.61-1.35 11.52 11.52 0 0 0-1.7-.1h-1V.56h16.05v.71h-1a4.74 4.74 0 0 0-2.73.53 2.17 2.17 0 0 0-.68 1.5 11.83 11.83 0 0 0-.05 1.34v12.12a8.91 8.91 0 0 0 .16 1.91 1.83 1.83 0 0 0 1.63 1.33 11.51 11.51 0 0 0 1.7.1zm-6.67-17.91a2.72 2.72 0 0 1 .51-1h-5.69a2.81 2.81 0 0 1 .75 1zm0 16.94h-4.43a2.89 2.89 0 0 1-.75 1h5.69a3 3 0 0 1-.51-1zm-.08-16.43h-4.18a8.53 8.53 0 0 1 .14 1.33h4v-.36q.02-.71.04-.98zm0 14.62h-4a7.63 7.63 0 0 1-.14 1.31h4.18v-1zm0-12.78h-4v1.3h4zm0 1.82h-4v1.31h4zm0 1.83h-4v1.3h4zm0 1.82h-4v1.33h4zm0 1.83h-4v1.31h4zm0 1.83h-4V15h4zm0 1.82h-4v1.33h4zM291.08 20.85v-.71h1a11.52 11.52 0 0 0 1.7-.1 1.83 1.83 0 0 0 1.61-1.37 9.11 9.11 0 0 0 .16-1.91V4.65a9.2 9.2 0 0 0-.16-1.93 1.81 1.81 0 0 0-1.61-1.35 11.52 11.52 0 0 0-1.7-.1h-1V.56h16.05v.71h-1a4.74 4.74 0 0 0-2.73.53 2.17 2.17 0 0 0-.68 1.5 11.83 11.83 0 0 0-.05 1.34v15.5h2.39a10.13 10.13 0 0 0 3.61-.59 15.41 15.41 0 0 0 5-3.6 25.28 25.28 0 0 0 2.33-2.52h.67v7.42zm9.38-18.62a2.72 2.72 0 0 1 .51-1h-5.69a2.81 2.81 0 0 1 .75 1zm-.1 16.94H296a2.89 2.89 0 0 1-.75 1h5.09zm0-16.43h-4.18a8.53 8.53 0 0 1 .14 1.33h4v-.36q.04-.71.05-.98zm0 14.62h-4a7.63 7.63 0 0 1-.14 1.31h4.17zm0-12.78h-4v1.3h4zm0 1.82h-4v1.31h4zm0 1.83h-4v1.3h4zm0 1.82h-4v1.33h4zm0 1.83h-4v1.31h4zm0 1.83h-4V15h4zm0 1.82h-4v1.33h4zm11.06 3.25a11.78 11.78 0 0 1-2.5 1.37h5.62v-1.38zm.68-.52h2.43V16a19.48 19.48 0 0 1-2.43 2.25zM337.28 10.75l2.6-3.62a5.29 5.29 0 0 0 1.15-3 2.59 2.59 0 0 0-.6-1.82 3.31 3.31 0 0 0-2.57-1h-.57V.56h11.29v.71a6.71 6.71 0 0 0-3.23 1.07 12 12 0 0 0-2.53 2.21 32.63 32.63 0 0 0-2.28 2.91l-3 4.25v5a8.91 8.91 0 0 0 .16 1.91 1.83 1.83 0 0 0 1.61 1.38 11.51 11.51 0 0 0 1.7.1h1v.71h-16.09v-.71h1a11.52 11.52 0 0 0 1.7-.1 1.83 1.83 0 0 0 1.61-1.37 9 9 0 0 0 .16-1.91v-3.51l-7-9.84a5.24 5.24 0 0 0-1.63-1.57 4.25 4.25 0 0 0-2.13-.52H319V.56h16.16v.71H334q-2.35 0-2.35 1.12a2.41 2.41 0 0 0 .55 1.33zm-13.86-8.52h5.35a1.86 1.86 0 0 1 .55-1h-7.05a5.58 5.58 0 0 1 1.15 1zm1.34 1.83h4.76l-.29-.42a2.74 2.74 0 0 1-.44-.9h-5zm1.3 1.82h4.76l-.93-1.31h-4.76zm1.31 1.83h4.74l-.94-1.33h-4.74zm1.3 1.82h4.74l-.94-1.31h-4.74zm1.33 1.83h4.73l-.96-1.36H329zm5.32 7.81h-4.43a2.73 2.73 0 0 1-.75 1h5.7a3.06 3.06 0 0 1-.54-1zm-.1-6v-1.11l-.14-.19h-4.73l.83 1.16v.15zm0 4.17h-4a7.63 7.63 0 0 1-.14 1.31h4.18v-1zm0-3.65h-4V15h4zm0 1.82h-4v1.33h4zm8.23-13.29q.33-.34 1-1h-4a5.49 5.49 0 0 1 .81 1zm-.46.51h-1.49a4.69 4.69 0 0 1 .27 1.61A17.62 17.62 0 0 1 343 2.73z"/></svg>