<svg data-name="Layer 1" xmlns="http://www.w3.org/2000/svg" viewBox="0 0 106.94 24.62"><path d="M57.41 18.83c-.25-.49-1.4-.33-2.8.08A27.14 27.14 0 0 1 47 20.15c-2.89-.08-3.71-.16-3.71-.16s1-3.13 1.57-4.53 1.15-2.72 1-3.22-.9-.33-1.89.33a16.2 16.2 0 0 0-2.22 2 5.73 5.73 0 0 1-.17-1.65c.08-.66 0-1.23-.58-1.23s-.65 2.22-.74 3.46-.26 3.76-.26 3.76a3.3 3.3 0 0 1-1.07.17c-.25-.08-.08-.82-.33-1.24s-1-.16-1.57-.24a29.44 29.44 0 0 0-4-.17 1.49 1.49 0 0 0-1.4 1.32 11.83 11.83 0 0 1-.41 2.64c-.33.74-.75 1-2 .9A12.92 12.92 0 0 1 26 21.8c-1.07-.33-1.32-.83-1.07-1s2.07-.4 3.24-.8 1.73-1 1.65-2-1.16-1.81-2.31-2.14a12.24 12.24 0 0 0-3.05-.25 7.49 7.49 0 0 0-1.32-3.95A22.27 22.27 0 0 0 17 5.49c-2.23-1.4-7.75-3.95-7.75-3.95S9.06.14 8.4.22s-.16 1.15-.16 1.15A19.36 19.36 0 0 0 4.12.14 24 24 0 0 0 0 .05v1.24a33.92 33.92 0 0 1 4.37.16 13.13 13.13 0 0 1 4.2 1.49 40.68 40.68 0 0 1 1 5.76c.42 3.71.5 13.34.5 13.34 0 1.16-4.7.83-5.52.83s-.33 1.73 1 1.73 4.53-.17 4.53-.17l.33.17c.33.16.49-.58.49-.58a3.52 3.52 0 0 0 1.4 0c.58-.16 5.52-.74 7.33-1.48a18 18 0 0 0 3.21-1.73s1.08 1.07 1.57 1.48a6.56 6.56 0 0 0 3.05 1.32 6.53 6.53 0 0 0 4.2-.41c.82-.41.66-1.65.66-2.39a3.07 3.07 0 0 1 .66-1.9c.32-.32 1.89 0 1.89 0a19.65 19.65 0 0 0 .08 2.89 1.23 1.23 0 0 0 1.57 1 14.29 14.29 0 0 0 2.63-1.57c.41-.25.41-.41 1.48-.16s0 0 .17.57.41 1.49 1.07 1.32.13-1.16.13-1.16a40.29 40.29 0 0 0 4.53.41c2.48.08 4.86-.91 6.92-1.48s4.2-1.4 3.96-1.9zm-34-2.22c-.41 2.22-3.05 3.79-5.6 4.53a37.32 37.32 0 0 1-6.42 1S10.87 12 10.71 10 10 3.76 10 3.76a31.75 31.75 0 0 1 8.64 5c3.52 3.15 5.16 5.62 4.75 7.85zm.8 2.39s-.08-2 1-2.14a3.73 3.73 0 0 1 2.8.41c.58.49.83 1.07-.41 1.23a16.45 16.45 0 0 1-3.39.5zm13.68 1.48c-1.07.25-2 .33-2.06-.25a1.28 1.28 0 0 1 1.23-1.32c.83-.08.83 0 .91.33a4.92 4.92 0 0 1-.08 1.24zM41 18.59c-.17-.66.66-2.23 1.15-2.8a9.19 9.19 0 0 1 2.22-2c.42-.08-.16 1.65-.66 2.63s-1.4 3.38-1.4 3.38A1.79 1.79 0 0 1 41 18.59zM64.24 1.29s-6.09-.33-7.9-.17-5.6 1.08-6.76 1.24-1-1.24.08-1.32S56.75 0 60.29.14s9.8.24 11.71.49 2.81.82 2.64 1.15-1.32.42-2.55.33-5.27-.66-6.26-.33-1.73.66-1.9 1.49a18.39 18.39 0 0 0 0 4.69c.25 1 .91 3.87 1.07 4.86s.33 3.71.33 3.71A10.72 10.72 0 0 0 68 16.2c.91-.33 1.73-.5 1.9-1a12 12 0 0 0 .16-2.47c0-.66 1.07-.5 1.07.16v2.47s1.57-2.06 2.14-2.22a3.21 3.21 0 0 1 2.14.58c.42.33-.08 1.48.42 2.14a2.8 2.8 0 0 0 2.88.57c.74-.41.74-1.56 1.32-1.64s-.25 1.15.82 1.81 2.64.9 3 .49 0-2.47.49-2.72.74.33.82 1.24.5 2.31-.82 3a3.89 3.89 0 0 1-3.54-.33c-.58-.42-.5-.91-1.32-.66a6 6 0 0 1-3.13.49c-1.32-.25-1.73-.66-1.89-1.56s.24-1.65-.09-1.82-.49-.65-1.15.25-1.81 1.15-1.73 1.9.49 1.56 0 1.89-1.23.66-1.23.16-.09-2-.09-2S69.35 18 68.69 18s-2.47-.41-3.13-.17-1.65 1.49-2.88 1.65-2.47.41-3.54-.74-1.24-2.14 0-2.14 4.44-.08 4.44-.08a38 38 0 0 0 .09-5c-.17-2-1-4.77-.83-6.26s-.08-2.55.33-3a7.15 7.15 0 0 1 1.07-.97zM86.15 13.48c-.34 0-1.23-.74-.82-1.07s.9-.5 1.07 0 .6 1.15-.25 1.07zM86.89 15c.15-.73 1-.16 1.49.74a9.71 9.71 0 0 1 1 3.21c.09.91-.33 1.9-.74 1.9s-.41-1.4-.74-2.55-1.17-2.51-1.01-3.3zM91.09 19.16c-.29-.15-1.31-3.95-.9-4.36s1.15-.58 1.15 0 .25 2.22.25 2.22 2.63-2.14 4.86-2.14a26.3 26.3 0 0 1 7.16 1.12c1.57.58 3.13 1.48 3.3 2.72a3.75 3.75 0 0 1-1.16 3.28c-.9.83-2.22 2.15-2.63 1.9s1.81-1.81 2.3-2.8a1.86 1.86 0 0 0-.08-2.39c-.66-.91-4-2.47-6.09-2.55a13.06 13.06 0 0 0-4.86.41 4.75 4.75 0 0 0-2.31 1.65c-.25.61-.49 1.19-.99.94z"/></svg>