<svg id="372e3202-346f-4cea-a747-163f6e70fa25" data-name="Layer 1" xmlns="http://www.w3.org/2000/svg" viewBox="0 0 24 24"><defs><style>.c36c888e-4f45-4378-bbdf-d432210024af{fill:#291f27}</style></defs><title>social--instagram</title><path class="c36c888e-4f45-4378-bbdf-d432210024af" d="M24 12q0 3.58-.08 5A7.33 7.33 0 0 1 22 22a7.33 7.33 0 0 1-5 1.94q-1.42.06-5 .06t-5-.08A7.33 7.33 0 0 1 2 22a7.33 7.33 0 0 1-1.92-5Q0 15.58 0 12t.08-5A7.33 7.33 0 0 1 2 2 7.33 7.33 0 0 1 7 .08Q8.42 0 12 0t5 .08A7.33 7.33 0 0 1 22 2a7.33 7.33 0 0 1 1.94 5q.06 1.42.06 5zM13.2 2.15H7.69a12.43 12.43 0 0 0-1.69.2 6.28 6.28 0 0 0-1.12.29 4.09 4.09 0 0 0-2.24 2.28A6.27 6.27 0 0 0 2.35 6a12.37 12.37 0 0 0-.15 1.65v8.72A12.34 12.34 0 0 0 2.35 18a6.23 6.23 0 0 0 .29 1.12 4.09 4.09 0 0 0 2.28 2.28 6.2 6.2 0 0 0 1.08.25 12.26 12.26 0 0 0 1.61.16h8.71a12.28 12.28 0 0 0 1.68-.16 6.22 6.22 0 0 0 1.12-.29 4.09 4.09 0 0 0 2.28-2.28 6.27 6.27 0 0 0 .25-1.08 12.42 12.42 0 0 0 .16-1.61v-1.51-1.65-1.2-1.2-1.65-1.51A12.46 12.46 0 0 0 21.65 6a6.32 6.32 0 0 0-.29-1.12 4.09 4.09 0 0 0-2.28-2.28A6.3 6.3 0 0 0 18 2.35a12.45 12.45 0 0 0-1.61-.16h-1.51zm3.16 5.49a5.94 5.94 0 0 1 1.8 4.36A6.14 6.14 0 0 1 12 18.16a5.93 5.93 0 0 1-4.36-1.8A5.93 5.93 0 0 1 5.84 12a5.94 5.94 0 0 1 1.8-4.36A5.94 5.94 0 0 1 12 5.84a5.94 5.94 0 0 1 4.36 1.8zm-1.53 7.19A3.85 3.85 0 0 0 16 12a4 4 0 0 0-4-4 4 4 0 0 0-4 4 4 4 0 0 0 4 4 3.85 3.85 0 0 0 2.83-1.17zm4.59-10.25a1.43 1.43 0 0 1 0 2 1.44 1.44 0 0 1-2.45-1 1.44 1.44 0 0 1 2.45-1z"/></svg>