<svg data-name="Layer 1" xmlns="http://www.w3.org/2000/svg" viewBox="0 0 21.11 17.14"><path d="M21.1 2.03a9.07 9.07 0 0 1-2.17 2.24v.56a12.28 12.28 0 0 1-.51 3.47 12.54 12.54 0 0 1-1.55 3.33 13 13 0 0 1-2.47 2.82 11 11 0 0 1-3.46 2 12.65 12.65 0 0 1-4.33.73 12 12 0 0 1-6.64-1.94 9.16 9.16 0 0 0 1 .05 8.47 8.47 0 0 0 5.37-1.85 4.34 4.34 0 0 1-4-3 5.44 5.44 0 0 0 .82.07 4.46 4.46 0 0 0 1.14-.15 4.26 4.26 0 0 1-2.48-1.49 4.18 4.18 0 0 1-1-2.75v-.09a4.28 4.28 0 0 0 2 .55A4.31 4.31 0 0 1 1.4 5.03 4.33 4.33 0 0 1 1.47.78a12.26 12.26 0 0 0 3.94 3.2 12 12 0 0 0 5 1.33 4.81 4.81 0 0 1-.11-1 4.17 4.17 0 0 1 1.25-3.05 4.34 4.34 0 0 1 6.22.1 8.49 8.49 0 0 0 2.75-1 4.2 4.2 0 0 1-1.9 2.38 8.6 8.6 0 0 0 2.48-.71z" fill="#decfb4"/></svg>